<svg width="20" height="19" viewBox="0 0 20 19" fill="none" xmlns="http://www.w3.org/2000/svg">
<path d="M18.092 8.0116L11.567 1.81285C11.4574 1.70814 11.3192 1.63463 11.1679 1.60063C11.0167 1.56662 10.8585 1.57348 10.7111 1.62041C10.5637 1.66735 10.4331 1.7525 10.334 1.86625C10.235 1.98 10.1713 2.1178 10.1503 2.2641L9.54199 6.33327L7.87533 7.9166L7.60033 7.76618C7.4209 7.68331 7.21613 7.66433 7.02323 7.71271C6.83033 7.76109 6.6621 7.87361 6.54911 8.02982C6.43613 8.18603 6.38588 8.37557 6.40752 8.56399C6.42915 8.75241 6.52122 8.9272 6.66699 9.0566L5.70866 9.98285L5.43366 9.83243C5.25468 9.75436 5.05238 9.73902 4.86263 9.78915C4.67289 9.83927 4.50796 9.95162 4.39711 10.1063C4.28626 10.2609 4.23664 10.4479 4.25706 10.634C4.27748 10.82 4.36661 10.9932 4.50866 11.1229L3.53366 12.0412L3.26699 11.8749C3.17188 11.8226 3.06681 11.7886 2.95783 11.775C2.84884 11.7614 2.73811 11.7684 2.63199 11.7957C2.52587 11.8229 2.42647 11.8698 2.33952 11.9337C2.25256 11.9975 2.17977 12.0771 2.12533 12.1678C2.03121 12.3309 2.00051 12.5202 2.0386 12.7026C2.0767 12.885 2.18115 13.0488 2.33366 13.1653L1.90866 13.5691C1.83149 13.6434 1.77184 13.7325 1.73366 13.8303C1.69096 13.9255 1.66831 14.0277 1.66699 14.1312V16.6249C1.66699 16.8349 1.75479 17.0363 1.91107 17.1847C2.06735 17.3332 2.27931 17.4166 2.50033 17.4166H5.10866C5.21756 17.4153 5.32514 17.3938 5.42533 17.3533C5.52836 17.317 5.6221 17.2603 5.70033 17.187L7.11699 15.8333L7.39199 15.9837C7.48661 16.0364 7.59123 16.0708 7.69988 16.0849C7.80852 16.0991 7.91904 16.0928 8.0251 16.0663C8.13116 16.0398 8.23068 15.9937 8.31795 15.9307C8.40522 15.8676 8.47852 15.7887 8.53366 15.6987C8.63094 15.5357 8.66423 15.3452 8.62761 15.1612C8.59099 14.9771 8.48683 14.8113 8.33366 14.6933L9.30866 13.7749L9.58366 13.9254C9.70821 13.9924 9.84883 14.0279 9.99199 14.0283C10.1515 14.0146 10.3035 13.9576 10.4298 13.864C10.5561 13.7704 10.6513 13.6442 10.704 13.5005C10.7568 13.3569 10.7648 13.2018 10.7272 13.0539C10.6896 12.906 10.608 12.7715 10.492 12.6666L11.467 11.7483L11.742 11.8987C11.8665 11.9657 12.0072 12.0012 12.1503 12.0016C12.3205 11.9987 12.4857 11.9464 12.6236 11.8517C12.7616 11.757 12.8657 11.6244 12.9219 11.4718C12.9782 11.3192 12.9839 11.1539 12.9384 10.9981C12.8928 10.8423 12.7981 10.7035 12.667 10.6004L13.3253 9.97493L17.617 9.39702C17.7712 9.37619 17.9162 9.31471 18.0355 9.21956C18.1548 9.1244 18.2437 8.99938 18.292 8.85868C18.3491 8.71433 18.3606 8.55726 18.3251 8.40678C18.2896 8.25629 18.2086 8.11894 18.092 8.0116ZM4.76699 15.8333H3.33366V14.4716L3.80866 14.0203L5.62533 15.0416L4.76699 15.8333ZM6.84199 13.8541L5.00033 12.8645L5.95033 11.962L7.75866 12.9516L6.84199 13.8541ZM9.01699 11.7958L7.20033 10.7983L8.15866 9.89577L10.0003 10.8854L9.01699 11.7958ZM11.192 9.72952L9.37533 8.70827L10.3253 7.80577L11.7587 9.16743L11.192 9.72952ZM13.2337 8.35202L11.2087 6.42827L11.567 4.05327L15.7337 8.0116L13.2337 8.35202Z" fill="#3B4168"/>
</svg>
