<svg width="20" height="20" viewBox="0 0 20 20" fill="none" xmlns="http://www.w3.org/2000/svg">
<path d="M5.83342 4.16671V1.66671C5.83342 1.44569 5.92121 1.23373 6.07749 1.07745C6.23377 0.921171 6.44573 0.833374 6.66675 0.833374H13.3334C13.5544 0.833374 13.7664 0.921171 13.9227 1.07745C14.079 1.23373 14.1667 1.44569 14.1667 1.66671V4.16671H17.5001C17.7211 4.16671 17.9331 4.2545 18.0893 4.41079C18.2456 4.56707 18.3334 4.77903 18.3334 5.00004V16.6667C18.3334 16.8877 18.2456 17.0997 18.0893 17.256C17.9331 17.4122 17.7211 17.5 17.5001 17.5H2.50008C2.27907 17.5 2.06711 17.4122 1.91083 17.256C1.75455 17.0997 1.66675 16.8877 1.66675 16.6667V5.00004C1.66675 4.77903 1.75455 4.56707 1.91083 4.41079C2.06711 4.2545 2.27907 4.16671 2.50008 4.16671H5.83342ZM7.50008 10.8334H3.33342V15.8334H16.6668V10.8334H12.5001V13.3334H7.50008V10.8334ZM16.6668 5.83337H3.33342V9.16671H7.50008V7.50004H12.5001V9.16671H16.6668V5.83337ZM9.16675 9.16671V11.6667H10.8334V9.16671H9.16675ZM7.50008 2.50004V4.16671H12.5001V2.50004H7.50008Z" fill="#6F7C98"/>
</svg>
