<svg width="20" height="20" viewBox="0 0 20 20" fill="none" xmlns="http://www.w3.org/2000/svg">
<path d="M10.0001 1.66675C14.6026 1.66675 18.3334 5.39758 18.3334 10.0001C18.3334 14.6026 14.6026 18.3334 10.0001 18.3334C5.39758 18.3334 1.66675 14.6026 1.66675 10.0001C1.66675 5.39758 5.39758 1.66675 10.0001 1.66675ZM10.0001 3.33341C6.31842 3.33341 3.33342 6.31841 3.33342 10.0001C3.33342 13.6817 6.31842 16.6667 10.0001 16.6667C13.6818 16.6667 16.6668 13.6817 16.6668 10.0001C16.6668 6.31841 13.6818 3.33341 10.0001 3.33341ZM13.1943 6.11425C13.3918 5.97591 13.6601 5.99925 13.8301 6.17008C14.0001 6.34008 14.0218 6.60841 13.8826 6.80341C12.0659 9.34175 11.0659 10.7017 10.8842 10.8842C10.3959 11.3717 9.60425 11.3717 9.11592 10.8842C8.62842 10.3959 8.62842 9.60425 9.11592 9.11592C9.42758 8.80508 10.7867 7.80425 13.1943 6.11425ZM14.5834 9.16675C15.0434 9.16675 15.4168 9.54008 15.4168 10.0001C15.4168 10.4601 15.0434 10.8334 14.5834 10.8334C14.1234 10.8334 13.7501 10.4601 13.7501 10.0001C13.7501 9.54008 14.1234 9.16675 14.5834 9.16675ZM5.41675 9.16675C5.87675 9.16675 6.25008 9.54008 6.25008 10.0001C6.25008 10.4601 5.87675 10.8334 5.41675 10.8334C4.95675 10.8334 4.58342 10.4601 4.58342 10.0001C4.58342 9.54008 4.95675 9.16675 5.41675 9.16675ZM7.34842 6.17008C7.67342 6.49508 7.67342 7.02258 7.34842 7.34841C7.02342 7.67341 6.49508 7.67341 6.17008 7.34841C5.84508 7.02341 5.84508 6.49508 6.17008 6.17008C6.49508 5.84508 7.02258 5.84508 7.34842 6.17008ZM10.0001 4.58341C10.4601 4.58341 10.8334 4.95675 10.8334 5.41675C10.8334 5.87675 10.4601 6.25008 10.0001 6.25008C9.54008 6.25008 9.16675 5.87675 9.16675 5.41675C9.16675 4.95675 9.54008 4.58341 10.0001 4.58341Z" fill="#6F7C98"/>
</svg>
