<svg width="20" height="20" viewBox="0 0 20 20" fill="none" xmlns="http://www.w3.org/2000/svg">
<g clip-path="url(#clip0)">
<path d="M15.8334 5.8335H20.0001V7.50016H15.8334V5.8335ZM14.1667 10.0002H20.0001V11.6668H14.1667V10.0002ZM16.6667 14.1668H20.0001V15.8335H16.6667V14.1668ZM1.66675 18.3335C1.66675 16.5654 2.36913 14.8697 3.61937 13.6195C4.86961 12.3692 6.5653 11.6668 8.33342 11.6668C10.1015 11.6668 11.7972 12.3692 13.0475 13.6195C14.2977 14.8697 15.0001 16.5654 15.0001 18.3335H13.3334C13.3334 17.0074 12.8066 15.7356 11.8689 14.798C10.9313 13.8603 9.6595 13.3335 8.33342 13.3335C7.00733 13.3335 5.73556 13.8603 4.79788 14.798C3.8602 15.7356 3.33341 17.0074 3.33341 18.3335H1.66675ZM8.33342 10.8335C5.57091 10.8335 3.33341 8.596 3.33341 5.8335C3.33341 3.071 5.57091 0.833496 8.33342 0.833496C11.0959 0.833496 13.3334 3.071 13.3334 5.8335C13.3334 8.596 11.0959 10.8335 8.33342 10.8335ZM8.33342 9.16683C10.1751 9.16683 11.6667 7.67516 11.6667 5.8335C11.6667 3.99183 10.1751 2.50016 8.33342 2.50016C6.49175 2.50016 5.00008 3.99183 5.00008 5.8335C5.00008 7.67516 6.49175 9.16683 8.33342 9.16683Z" fill="#6F7C98"/>
</g>
<defs>
<clipPath id="clip0">
<rect width="20" height="20" fill="white" transform="translate(0 0.00012207)"/>
</clipPath>
</defs>
</svg>
