<svg width="20" height="20" viewBox="0 0 20 20" fill="none" xmlns="http://www.w3.org/2000/svg">
<path d="M7.50002 1.66949V1.66699H16.665C17.125 1.66699 17.5 2.04616 17.5 2.49366V17.507C17.4998 17.7263 17.4125 17.9366 17.2574 18.0916C17.1022 18.2466 16.8918 18.3337 16.6725 18.3337H3.32752C3.21808 18.3329 3.10987 18.3106 3.00906 18.268C2.90825 18.2254 2.81681 18.1634 2.73997 18.0855C2.66313 18.0075 2.60239 17.9152 2.56122 17.8138C2.52005 17.7124 2.49925 17.6039 2.50002 17.4945V6.66699L7.50002 1.66949ZM4.85835 6.66699H7.50002V4.02533L4.85835 6.66699ZM9.16669 3.33366V7.50033C9.16669 7.72134 9.07889 7.9333 8.92261 8.08958C8.76633 8.24586 8.55437 8.33366 8.33335 8.33366H4.16669V16.667H15.8334V3.33366H9.16669Z" fill="#0071CE"/>
<path d="M8.75 9.16699C8.05964 9.16699 7.5 9.72664 7.5 10.417C7.5 11.1073 8.05964 11.667 8.75 11.667C9.44036 11.667 10 11.1073 10 10.417C10 9.72664 9.44036 9.16699 8.75 9.16699Z" fill="#0071CE"/>
<path d="M15.8333 13.0953V15.3804C14.958 14.6526 14.0835 13.9189 13.2649 13.1834C12.861 13.5469 12.4465 13.9093 12.0356 14.2683L12.0327 14.2709C11.4774 14.7561 10.9291 15.2354 10.4106 15.7136L9.72246 16.3484L8.96871 15.8849L7.16774 14.7481C6.68172 15.2252 6.18238 15.6859 5.69044 16.1397L5.68562 16.1441C5.19505 16.5967 4.63299 17.0425 4.16663 17.4997V15.1929C4.39643 14.978 4.6272 14.7652 4.85589 14.5542L4.86066 14.5498C5.47479 13.9833 6.0774 13.4272 6.64984 12.8464L6.99158 12.4996L9.57434 14.1297L9.58566 14.1193C10.1162 13.6299 10.6752 13.1414 11.2273 12.6589L11.2303 12.6563C11.7855 12.171 12.3339 11.6918 12.8523 11.2135L13.2648 10.833L13.6773 11.2135C14.3553 11.839 15.0836 12.4654 15.8333 13.0953Z" fill="#0071CE"/>
</svg>
