<svg width="24" height="24" viewBox="0 0 24 24" fill="none" xmlns="http://www.w3.org/2000/svg">
<path d="M10.2954 20.576C9.73377 20.5759 9.19072 20.375 8.76426 20.0096L3.27386 15.3035C2.94501 15.0216 2.90695 14.5265 3.18884 14.1976L5.23088 11.8155C5.5132 11.4874 6.00765 11.4494 6.3368 11.7305L9.83928 14.7327L16.9841 4.34014C17.1019 4.1686 17.283 4.05094 17.4876 4.01308C17.6923 3.97523 17.9035 4.02029 18.0749 4.13833L20.66 5.91667C21.0168 6.16199 21.1073 6.64997 20.8622 7.00691L12.2344 19.5564C11.8559 20.1062 11.2618 20.4697 10.5999 20.5563C10.4989 20.5697 10.3972 20.5763 10.2954 20.576ZM4.89 14.6229L9.78485 18.8184C9.95375 18.9632 10.1762 19.0294 10.3968 19.0006C10.6174 18.9718 10.8153 18.8508 10.9414 18.6675L19.125 6.76423L17.8324 5.87534L10.6377 16.3406C10.5117 16.524 10.3137 16.6453 10.093 16.6741C9.87229 16.703 9.64973 16.6367 9.48076 16.4919L5.9109 13.4319L4.89 14.6229Z" fill="#0071CE"/>
</svg>
