<svg width="41" height="40" viewBox="0 0 41 40" fill="none" xmlns="http://www.w3.org/2000/svg">
<circle cx="20.3333" cy="20" r="20" fill="#F5FBFF"/>
<path d="M21.3333 20H24.3333L20.3333 24L16.3333 20H19.3333V16H21.3333V20ZM23.3333 12H13.3333V28H27.3333V16H23.3333V12ZM11.3333 10.992C11.3333 10.444 11.7803 10 12.3323 10H24.3333L29.3333 15V28.993C29.3342 29.1243 29.3093 29.2545 29.2599 29.3762C29.2105 29.4979 29.1376 29.6087 29.0454 29.7022C28.9532 29.7957 28.8434 29.8701 28.7225 29.9212C28.6015 29.9723 28.4716 29.9991 28.3403 30H12.3263C12.0637 29.9982 11.8123 29.8931 11.6265 29.7075C11.4407 29.5219 11.3354 29.2706 11.3333 29.008V10.992Z" fill="#0071CE"/>
</svg>
