<svg width="25" height="24" viewBox="0 0 25 24" fill="none" xmlns="http://www.w3.org/2000/svg">
<path d="M13.3333 12H16.3333L12.3333 16L8.33331 12H11.3333V8H13.3333V12ZM15.3333 4H5.33331V20H19.3333V8H15.3333V4ZM3.33331 2.992C3.33331 2.444 3.78031 2 4.33231 2H16.3333L21.3333 7V20.993C21.3342 21.1243 21.3093 21.2545 21.2599 21.3762C21.2105 21.4979 21.1376 21.6087 21.0454 21.7022C20.9532 21.7957 20.8434 21.8701 20.7225 21.9212C20.6015 21.9723 20.4716 21.9991 20.3403 22H4.32631C4.06369 21.9982 3.81233 21.8931 3.62653 21.7075C3.44073 21.5219 3.33541 21.2706 3.33331 21.008V2.992Z" fill="#0071CE"/>
</svg>
