<svg width="21" height="20" viewBox="0 0 21 20" fill="none" xmlns="http://www.w3.org/2000/svg">
<path d="M10.9167 4.52022L11.0631 4.66667H11.2703H18.4253C18.5137 4.66667 18.5984 4.70179 18.661 4.7643C18.7235 4.82681 18.7586 4.91159 18.7586 5V16.6667C18.7586 16.7551 18.7235 16.8399 18.661 16.9024C18.5984 16.9649 18.5137 17 18.4253 17H3.42525C3.33685 17 3.25206 16.9649 3.18955 16.9024C3.12704 16.8399 3.09192 16.7551 3.09192 16.6667V3.33333C3.09192 3.24493 3.12704 3.16014 3.18955 3.09763C3.25206 3.03512 3.33685 3 3.42525 3H9.39648L10.9167 4.52022ZM4.25859 3.66667H3.75859V4.16667V15.8333V16.3333H4.25859H17.5919H18.0919V15.8333V5.83333V5.33333H17.5919H10.7874L9.26714 3.81311L9.12069 3.66667H8.91359H4.25859ZM11.2586 10.8333V11.3333H11.7586H13.0515L10.9253 13.4596L8.79903 11.3333H10.0919H10.5919V10.8333V8H11.2586V10.8333Z" fill="black" stroke="#0071CE"/>
</svg>
