<svg width="20" height="20" viewBox="0 0 20 20" fill="none" xmlns="http://www.w3.org/2000/svg">
<path d="M16.2205 7.50073C16.1584 7.358 16.0575 7.23551 15.9294 7.14714C15.8013 7.05876 15.6509 7.00805 15.4955 7.00073H11.6788L12.7371 3.05073C12.7708 2.92713 12.7756 2.79742 12.751 2.67168C12.7264 2.54594 12.6732 2.42756 12.5955 2.32573C12.517 2.22377 12.4159 2.14136 12.3003 2.08498C12.1846 2.02859 12.0575 1.99976 11.9288 2.00073H6.09546C5.90732 1.99429 5.72255 2.05173 5.57123 2.16371C5.41991 2.27569 5.31096 2.4356 5.26213 2.6174L3.02879 10.9507C2.99482 11.0766 2.99085 11.2087 3.01721 11.3364C3.04358 11.4641 3.09954 11.5838 3.18059 11.6859C3.26165 11.7881 3.36554 11.8698 3.4839 11.9244C3.60227 11.9791 3.73182 12.0052 3.86213 12.0007H7.07046L5.56213 17.6174C5.51271 17.7985 5.52589 17.991 5.59955 18.1637C5.6732 18.3364 5.803 18.4791 5.96793 18.5688C6.13285 18.6585 6.32323 18.6899 6.50821 18.6579C6.6932 18.6259 6.86195 18.5323 6.98713 18.3924L16.0705 8.3924C16.1786 8.27397 16.2503 8.12684 16.2769 7.96868C16.3035 7.81052 16.2839 7.64803 16.2205 7.50073ZM8.06213 14.7341L8.96213 11.4007C8.99972 11.2753 9.00725 11.1428 8.98408 11.014C8.96092 10.8851 8.90772 10.7635 8.82879 10.6591C8.74946 10.556 8.64709 10.4729 8.52987 10.4164C8.41266 10.36 8.28386 10.3318 8.15379 10.3341H4.95379L6.73713 3.6674H10.8455L9.78713 7.6174C9.75315 7.74328 9.74918 7.87538 9.77555 8.00307C9.80191 8.13076 9.85787 8.25048 9.93893 8.35261C10.02 8.45474 10.1239 8.53643 10.2422 8.5911C10.3606 8.64577 10.4902 8.67191 10.6205 8.6674H13.5955L8.06213 14.7341Z" fill="#3B4168"/>
</svg>
