<svg width="20" height="20" viewBox="0 0 20 20" fill="none" xmlns="http://www.w3.org/2000/svg">
<path d="M4.16659 7.49996C4.3876 7.49996 4.59956 7.58776 4.75584 7.74404C4.91212 7.90032 4.99992 8.11228 4.99992 8.33329C6.3092 8.33136 7.58074 8.77185 8.60825 9.58329H10.4166C11.5274 9.58329 12.5249 10.0666 13.2116 10.8333H15.8333C16.621 10.8331 17.3926 11.0562 18.0587 11.4767C18.7248 11.8972 19.258 12.4979 19.5966 13.2091C17.6258 15.81 14.4349 17.5 10.8333 17.5C8.50825 17.5 6.54159 16.9975 4.94992 16.1183C4.89162 16.2792 4.78512 16.4182 4.64493 16.5163C4.50475 16.6144 4.3377 16.6669 4.16659 16.6666H1.66659C1.44557 16.6666 1.23361 16.5788 1.07733 16.4225C0.921049 16.2663 0.833252 16.0543 0.833252 15.8333V8.33329C0.833252 8.11228 0.921049 7.90032 1.07733 7.74404C1.23361 7.58776 1.44557 7.49996 1.66659 7.49996H4.16659ZM5.00075 9.99996L4.99992 14.185L5.03742 14.2116C6.53325 15.2616 8.48159 15.8333 10.8333 15.8333C13.3366 15.8333 15.6658 14.87 17.3624 13.225L17.4733 13.1141L17.3733 13.0308C16.9798 12.7226 16.5028 12.5397 16.0041 12.5058L15.8333 12.5H14.0741C14.1341 12.7683 14.1666 13.0466 14.1666 13.3333V14.1666H6.66659V12.5L12.3249 12.4991L12.2966 12.4341C12.1369 12.1004 11.8912 11.8152 11.5849 11.6078C11.2785 11.4005 10.9224 11.2784 10.5533 11.2541L10.4166 11.25H7.97492C7.58768 10.8539 7.12514 10.5393 6.61452 10.3246C6.1039 10.1099 5.5555 9.99956 5.00159 9.99996H5.00075ZM3.33325 9.16663H2.49992V15H3.33325V9.16663ZM14.9999 4.16663C15.663 4.16663 16.2988 4.43002 16.7677 4.89886C17.2365 5.3677 17.4999 6.00358 17.4999 6.66663C17.4999 7.32967 17.2365 7.96555 16.7677 8.43439C16.2988 8.90323 15.663 9.16663 14.9999 9.16663C14.3369 9.16663 13.701 8.90323 13.2322 8.43439C12.7633 7.96555 12.4999 7.32967 12.4999 6.66663C12.4999 6.00358 12.7633 5.3677 13.2322 4.89886C13.701 4.43002 14.3369 4.16663 14.9999 4.16663ZM14.9999 5.83329C14.7789 5.83329 14.5669 5.92109 14.4107 6.07737C14.2544 6.23365 14.1666 6.44561 14.1666 6.66663C14.1666 6.88764 14.2544 7.0996 14.4107 7.25588C14.5669 7.41216 14.7789 7.49996 14.9999 7.49996C15.2209 7.49996 15.4329 7.41216 15.5892 7.25588C15.7455 7.0996 15.8333 6.88764 15.8333 6.66663C15.8333 6.44561 15.7455 6.23365 15.5892 6.07737C15.4329 5.92109 15.2209 5.83329 14.9999 5.83329ZM9.16659 1.66663C9.82963 1.66663 10.4655 1.93002 10.9344 2.39886C11.4032 2.8677 11.6666 3.50358 11.6666 4.16663C11.6666 4.82967 11.4032 5.46555 10.9344 5.93439C10.4655 6.40323 9.82963 6.66663 9.16659 6.66663C8.50354 6.66663 7.86766 6.40323 7.39882 5.93439C6.92998 5.46555 6.66659 4.82967 6.66659 4.16663C6.66659 3.50358 6.92998 2.8677 7.39882 2.39886C7.86766 1.93002 8.50354 1.66663 9.16659 1.66663ZM9.16659 3.33329C8.94557 3.33329 8.73361 3.42109 8.57733 3.57737C8.42105 3.73365 8.33325 3.94561 8.33325 4.16663C8.33325 4.38764 8.42105 4.5996 8.57733 4.75588C8.73361 4.91216 8.94557 4.99996 9.16659 4.99996C9.3876 4.99996 9.59956 4.91216 9.75584 4.75588C9.91212 4.5996 9.99992 4.38764 9.99992 4.16663C9.99992 3.94561 9.91212 3.73365 9.75584 3.57737C9.59956 3.42109 9.3876 3.33329 9.16659 3.33329Z" fill="#6F7C98"/>
</svg>
