<svg width="24" height="23" viewBox="0 0 24 23" fill="none" xmlns="http://www.w3.org/2000/svg">
<path d="M14.12 0.655024C13.4886 0.227481 12.7523 0 12 0C11.2477 0 10.5114 0.227481 9.88 0.655024L0 7.31785L4 10.0152V20.2964L4.293 20.6027C4.387 20.7 6.647 23 12 23C17.353 23 19.613 20.7 19.707 20.6027L20 20.2964V10.0152L22 8.66651V19.8636H24V7.31785L14.12 0.655024ZM18 19.3576C16.1928 20.4889 14.1033 21.0293 12 20.909C9.89685 21.0295 7.8073 20.4896 6 19.3586V11.3638L9.88 13.9775C10.5111 14.4061 11.2475 14.6342 12 14.6342C12.7525 14.6342 13.4889 14.4061 14.12 13.9775L18 11.3638V19.3576ZM13.036 12.2232C12.7277 12.4329 12.3678 12.5445 12 12.5445C11.6322 12.5445 11.2723 12.4329 10.964 12.2232L3.69 7.31785L10.964 2.41247C11.2723 2.2028 11.6322 2.0912 12 2.0912C12.3678 2.0912 12.7277 2.2028 13.036 2.41247L20.31 7.31785L13.036 12.2232Z" fill="#374957"/>
</svg>
