<svg width="20" height="20" viewBox="0 0 20 20" fill="none" xmlns="http://www.w3.org/2000/svg">
<path d="M15.8337 1.66663H4.16699C3.50395 1.66663 2.86807 1.93002 2.39923 2.39886C1.93038 2.8677 1.66699 3.50358 1.66699 4.16663V15.8333C1.66699 16.4963 1.93038 17.1322 2.39923 17.6011C2.86807 18.0699 3.50395 18.3333 4.16699 18.3333H15.8337C15.9707 18.3314 16.1074 18.3174 16.242 18.2916L16.492 18.2333H16.5503H16.592L16.9003 18.1166L17.0087 18.0583C17.092 18.0083 17.1837 17.9666 17.267 17.9083C17.3783 17.8264 17.4841 17.7373 17.5837 17.6416L17.642 17.5666C17.7238 17.4837 17.799 17.3946 17.867 17.3L17.942 17.1916C18.0002 17.0988 18.0504 17.0013 18.092 16.9C18.1149 16.86 18.1344 16.8182 18.1503 16.775C18.192 16.675 18.217 16.5666 18.2503 16.4583V16.3333C18.2976 16.1705 18.3255 16.0026 18.3337 15.8333V4.16663C18.3337 3.50358 18.0703 2.8677 17.6014 2.39886C17.1326 1.93002 16.4967 1.66663 15.8337 1.66663ZM4.16699 16.6666C3.94598 16.6666 3.73402 16.5788 3.57774 16.4225C3.42146 16.2663 3.33366 16.0543 3.33366 15.8333V12.2416L6.07533 9.49163C6.1528 9.41352 6.24496 9.35152 6.34651 9.30922C6.44806 9.26691 6.55698 9.24513 6.66699 9.24513C6.777 9.24513 6.88592 9.26691 6.98747 9.30922C7.08902 9.35152 7.18119 9.41352 7.25866 9.49163L14.4253 16.6666H4.16699ZM16.667 15.8333C16.6662 15.936 16.6464 16.0377 16.6087 16.1333C16.5896 16.1739 16.5673 16.2129 16.542 16.25C16.5197 16.2852 16.4946 16.3187 16.467 16.35L12.0087 11.8916L12.742 11.1583C12.8195 11.0802 12.9116 11.0182 13.0132 10.9759C13.1147 10.9336 13.2237 10.9118 13.3337 10.9118C13.4437 10.9118 13.5526 10.9336 13.6541 10.9759C13.7557 11.0182 13.8479 11.0802 13.9253 11.1583L16.667 13.9083V15.8333ZM16.667 11.55L15.1003 9.99996C14.6234 9.54745 13.9911 9.29519 13.3337 9.29519C12.6762 9.29519 12.0439 9.54745 11.567 9.99996L10.8337 10.7333L8.43366 8.33329C7.95676 7.88079 7.32441 7.62852 6.66699 7.62852C6.00958 7.62852 5.37723 7.88079 4.90033 8.33329L3.33366 9.88329V4.16663C3.33366 3.94561 3.42146 3.73365 3.57774 3.57737C3.73402 3.42109 3.94598 3.33329 4.16699 3.33329H15.8337C16.0547 3.33329 16.2666 3.42109 16.4229 3.57737C16.5792 3.73365 16.667 3.94561 16.667 4.16663V11.55ZM11.2503 4.99996C11.0031 4.99996 10.7614 5.07327 10.5559 5.21062C10.3503 5.34797 10.1901 5.5432 10.0955 5.77161C10.0009 6.00001 9.97611 6.25135 10.0243 6.49382C10.0726 6.7363 10.1916 6.95903 10.3664 7.13384C10.5413 7.30866 10.764 7.42771 11.0065 7.47594C11.2489 7.52417 11.5003 7.49942 11.7287 7.40481C11.9571 7.3102 12.1523 7.14998 12.2897 6.94442C12.427 6.73886 12.5003 6.49719 12.5003 6.24996C12.5003 5.91844 12.3686 5.6005 12.1342 5.36608C11.8998 5.13166 11.5818 4.99996 11.2503 4.99996Z" fill="#3B4168"/>
</svg>
