<svg width="14" height="14" viewBox="0 0 14 14" fill="none" xmlns="http://www.w3.org/2000/svg">
<path d="M6.99998 13.6667C3.31798 13.6667 0.333313 10.682 0.333313 7C0.333313 3.318 3.31798 0.333328 6.99998 0.333328C10.682 0.333328 13.6666 3.318 13.6666 7C13.6666 10.682 10.682 13.6667 6.99998 13.6667ZM6.99998 12.3333C8.41447 12.3333 9.77102 11.7714 10.7712 10.7712C11.7714 9.77104 12.3333 8.41448 12.3333 7C12.3333 5.58551 11.7714 4.22895 10.7712 3.22876C9.77102 2.22856 8.41447 1.66666 6.99998 1.66666C5.58549 1.66666 4.22894 2.22856 3.22874 3.22876C2.22855 4.22895 1.66665 5.58551 1.66665 7C1.66665 8.41448 2.22855 9.77104 3.22874 10.7712C4.22894 11.7714 5.58549 12.3333 6.99998 12.3333ZM6.33331 3.66666H7.66665V5H6.33331V3.66666ZM6.33331 6.33333H7.66665V10.3333H6.33331V6.33333Z" fill="#909EBB"/>
</svg>
