<svg width="20" height="20" viewBox="0 0 20 20" fill="none" xmlns="http://www.w3.org/2000/svg">
<path d="M8.33366 14.1666H9.16699V15C9.16699 15.221 9.25479 15.4329 9.41107 15.5892C9.56735 15.7455 9.77931 15.8333 10.0003 15.8333C10.2213 15.8333 10.4333 15.7455 10.5896 15.5892C10.7459 15.4329 10.8337 15.221 10.8337 15V14.1666H11.667C11.888 14.1666 12.1 14.0788 12.2562 13.9225C12.4125 13.7663 12.5003 13.5543 12.5003 13.3333C12.5003 13.1123 12.4125 12.9003 12.2562 12.744C12.1 12.5878 11.888 12.5 11.667 12.5H10.8337V11.6666C10.8337 11.4456 10.7459 11.2337 10.5896 11.0774C10.4333 10.9211 10.2213 10.8333 10.0003 10.8333C9.77931 10.8333 9.56735 10.9211 9.41107 11.0774C9.25479 11.2337 9.16699 11.4456 9.16699 11.6666V12.5H8.33366C8.11265 12.5 7.90068 12.5878 7.7444 12.744C7.58812 12.9003 7.50033 13.1123 7.50033 13.3333C7.50033 13.5543 7.58812 13.7663 7.7444 13.9225C7.90068 14.0788 8.11265 14.1666 8.33366 14.1666ZM15.8337 4.99996H14.167V4.16663C14.167 3.50358 13.9036 2.8677 13.4348 2.39886C12.9659 1.93002 12.33 1.66663 11.667 1.66663H8.33366C7.67062 1.66663 7.03473 1.93002 6.56589 2.39886C6.09705 2.8677 5.83366 3.50358 5.83366 4.16663V4.99996H4.16699C3.50395 4.99996 2.86807 5.26335 2.39923 5.73219C1.93038 6.20103 1.66699 6.83692 1.66699 7.49996V15.8333C1.66699 16.4963 1.93038 17.1322 2.39923 17.6011C2.86807 18.0699 3.50395 18.3333 4.16699 18.3333H15.8337C16.4967 18.3333 17.1326 18.0699 17.6014 17.6011C18.0703 17.1322 18.3337 16.4963 18.3337 15.8333V7.49996C18.3337 6.83692 18.0703 6.20103 17.6014 5.73219C17.1326 5.26335 16.4967 4.99996 15.8337 4.99996ZM7.50033 4.16663C7.50033 3.94561 7.58812 3.73365 7.7444 3.57737C7.90068 3.42109 8.11265 3.33329 8.33366 3.33329H11.667C11.888 3.33329 12.1 3.42109 12.2562 3.57737C12.4125 3.73365 12.5003 3.94561 12.5003 4.16663V4.99996H7.50033V4.16663ZM16.667 15.8333C16.667 16.0543 16.5792 16.2663 16.4229 16.4225C16.2666 16.5788 16.0547 16.6666 15.8337 16.6666H4.16699C3.94598 16.6666 3.73402 16.5788 3.57774 16.4225C3.42146 16.2663 3.33366 16.0543 3.33366 15.8333V9.99996H16.667V15.8333ZM16.667 8.33329H3.33366V7.49996C3.33366 7.27895 3.42146 7.06698 3.57774 6.9107C3.73402 6.75442 3.94598 6.66663 4.16699 6.66663H15.8337C16.0547 6.66663 16.2666 6.75442 16.4229 6.9107C16.5792 7.06698 16.667 7.27895 16.667 7.49996V8.33329Z" fill="#3B4168"/>
</svg>
