<svg width="20" height="20" viewBox="0 0 20 20" fill="none" xmlns="http://www.w3.org/2000/svg">
<path d="M10.0001 18.3333C5.39758 18.3333 1.66675 14.6025 1.66675 9.99996C1.66675 5.39746 5.39758 1.66663 10.0001 1.66663C14.6026 1.66663 18.3334 5.39746 18.3334 9.99996C18.3334 14.6025 14.6026 18.3333 10.0001 18.3333ZM10.0001 16.6666C11.7682 16.6666 13.4639 15.9642 14.7141 14.714C15.9644 13.4638 16.6668 11.7681 16.6668 9.99996C16.6668 8.23185 15.9644 6.53616 14.7141 5.28591C13.4639 4.03567 11.7682 3.33329 10.0001 3.33329C8.23197 3.33329 6.53628 4.03567 5.28604 5.28591C4.03579 6.53616 3.33342 8.23185 3.33342 9.99996C3.33342 11.7681 4.03579 13.4638 5.28604 14.714C6.53628 15.9642 8.23197 16.6666 10.0001 16.6666ZM7.08342 11.6666H11.6667C11.7773 11.6666 11.8832 11.6227 11.9614 11.5446C12.0395 11.4664 12.0834 11.3605 12.0834 11.25C12.0834 11.1395 12.0395 11.0335 11.9614 10.9553C11.8832 10.8772 11.7773 10.8333 11.6667 10.8333H8.33342C7.78088 10.8333 7.25098 10.6138 6.86028 10.2231C6.46958 9.8324 6.25008 9.30249 6.25008 8.74996C6.25008 8.19743 6.46958 7.66752 6.86028 7.27682C7.25098 6.88612 7.78088 6.66663 8.33342 6.66663H9.16675V4.99996H10.8334V6.66663H12.9167V8.33329H8.33342C8.22291 8.33329 8.11693 8.37719 8.03879 8.45533C7.96065 8.53347 7.91675 8.63945 7.91675 8.74996C7.91675 8.86047 7.96065 8.96645 8.03879 9.04459C8.11693 9.12273 8.22291 9.16663 8.33342 9.16663H11.6667C12.2193 9.16663 12.7492 9.38612 13.1399 9.77682C13.5306 10.1675 13.7501 10.6974 13.7501 11.25C13.7501 11.8025 13.5306 12.3324 13.1399 12.7231C12.7492 13.1138 12.2193 13.3333 11.6667 13.3333H10.8334V15H9.16675V13.3333H7.08342V11.6666Z" fill="#6F7C98"/>
</svg>
