<svg width="24" height="19" viewBox="0 0 24 19" fill="none" xmlns="http://www.w3.org/2000/svg">
<path d="M24 15.5455V2.59091C24 1.90376 23.6839 1.24475 23.1213 0.75886C22.5587 0.27297 21.7956 0 21 0H3C2.20435 0 1.44129 0.27297 0.87868 0.75886C0.31607 1.24475 0 1.90376 0 2.59091L0 15.5455H11V17.2727H6V19H18V17.2727H13V15.5455H24ZM2 2.59091C2 2.36186 2.10536 2.14219 2.29289 1.98023C2.48043 1.81826 2.73478 1.72727 3 1.72727H21C21.2652 1.72727 21.5196 1.81826 21.7071 1.98023C21.8946 2.14219 22 2.36186 22 2.59091V13.8182H2V2.59091ZM14.965 6.90909H20V8.63636H16.035L13.376 12.0805L10.376 6.89873L9.035 8.63636H4V6.90909H7.965L10.624 3.46491L13.624 8.64673L14.965 6.90909Z" fill="#374957"/>
</svg>
