<svg width="20" height="20" viewBox="0 0 20 20" fill="none" xmlns="http://www.w3.org/2000/svg">
<path d="M17.9084 8.49165L17.0751 8.03332L9.57506 3.86665H9.48339C9.4323 3.84505 9.37929 3.82831 9.32506 3.81665H9.16673H9.01673C8.95979 3.82832 8.90401 3.84505 8.85006 3.86665H8.75839L1.25839 8.03332C1.13015 8.106 1.02347 8.2114 0.949256 8.33877C0.87504 8.46613 0.835937 8.61091 0.835938 8.75832C0.835937 8.90573 0.87504 9.0505 0.949256 9.17787C1.02347 9.30524 1.13015 9.41064 1.25839 9.48332L3.33339 10.6333V14.5833C3.33339 15.2464 3.59679 15.8822 4.06563 16.3511C4.53447 16.8199 5.17035 17.0833 5.83339 17.0833H12.5001C13.1631 17.0833 13.799 16.8199 14.2678 16.3511C14.7367 15.8822 15.0001 15.2464 15.0001 14.5833V10.6333L16.6667 9.69998V12.0833C16.6667 12.3043 16.7545 12.5163 16.9108 12.6726C17.0671 12.8289 17.279 12.9167 17.5001 12.9167C17.7211 12.9167 17.933 12.8289 18.0893 12.6726C18.2456 12.5163 18.3334 12.3043 18.3334 12.0833V9.21665C18.3331 9.06899 18.2937 8.92404 18.219 8.79665C18.1443 8.66926 18.0371 8.56401 17.9084 8.49165ZM13.3334 14.5833C13.3334 14.8043 13.2456 15.0163 13.0893 15.1726C12.933 15.3289 12.7211 15.4167 12.5001 15.4167H5.83339C5.61238 15.4167 5.40042 15.3289 5.24414 15.1726C5.08786 15.0163 5.00006 14.8043 5.00006 14.5833V11.5583L8.75839 13.6417L8.88339 13.6917H8.95839C9.02756 13.7004 9.09756 13.7004 9.16673 13.6917C9.2359 13.7004 9.30589 13.7004 9.37506 13.6917H9.45006C9.4943 13.6823 9.53659 13.6654 9.57506 13.6417L13.3334 11.5583V14.5833ZM9.16673 11.9667L3.38339 8.74998L9.16673 5.53332L14.9501 8.74998L9.16673 11.9667Z" fill="#3B4168"/>
</svg>
