<svg width="33" height="32" viewBox="0 0 33 32" fill="none" xmlns="http://www.w3.org/2000/svg">
<g clip-path="url(#clip0)">
<path d="M31.1451 11.6543C30.623 11.135 29.7788 11.1373 29.2594 11.6594L13.2311 27.7745C11.1516 29.854 7.77417 29.854 5.69081 27.7717C3.60901 25.6888 3.60901 22.3114 5.69106 20.2294L22.1939 3.63984C23.4922 2.34162 25.6029 2.34162 26.9049 3.64265C28.2066 4.9443 28.2066 7.05479 26.9046 8.35682L13.2336 22.0278C13.2327 22.0286 13.2319 22.0296 13.2311 22.0305C12.7102 22.5485 11.8685 22.5478 11.3488 22.028C10.8281 21.5074 10.8281 20.6635 11.3488 20.1429L17.9477 13.5426C18.4683 13.0219 18.4682 12.1776 17.9475 11.657C17.4267 11.1363 16.5824 11.1364 16.0618 11.6571L9.46296 18.2573C7.90099 19.8193 7.90099 22.3516 9.46309 23.9136C11.0251 25.4757 13.5574 25.4757 15.1195 23.9136C15.1213 23.9118 15.1228 23.9099 15.1245 23.9081L28.7902 10.2424C31.1337 7.89894 31.1337 4.09997 28.7902 1.75654C26.4465 -0.585514 22.6478 -0.585514 20.3057 1.75654L3.80289 18.3462C0.681945 21.4671 0.681945 26.5326 3.80514 29.6573C6.9304 32.781 11.9959 32.781 15.1193 29.6576L31.1502 13.54C31.6695 13.0179 31.6672 12.1737 31.1451 11.6543Z" fill="#E4E7F2"/>
</g>
<defs>
<clipPath id="clip0">
<rect width="32" height="32" fill="white" transform="translate(0.5)"/>
</clipPath>
</defs>
</svg>
