<svg width="20" height="20" viewBox="0 0 20 20" fill="none" xmlns="http://www.w3.org/2000/svg">
<path d="M16.4913 5.94171C16.4128 5.84239 16.3127 5.76226 16.1986 5.70739C16.0846 5.65252 15.9595 5.62436 15.8329 5.62504H6.66626V5.20837C6.66729 4.84561 6.78666 4.49309 7.00625 4.20432C7.22583 3.91556 7.53363 3.70632 7.88292 3.60837C8.10732 3.8249 8.40455 3.94973 8.71626 3.95837H9.54959C9.88111 3.95837 10.1991 3.82668 10.4335 3.59226C10.6679 3.35784 10.7996 3.03989 10.7996 2.70837C10.7996 2.37685 10.6679 2.05891 10.4335 1.82449C10.1991 1.59007 9.88111 1.45837 9.54959 1.45837H8.71626C8.5284 1.45863 8.34304 1.50152 8.17415 1.58379C8.00527 1.66607 7.85725 1.7856 7.74126 1.93337C6.97314 2.07191 6.278 2.4756 5.77699 3.07408C5.27597 3.67255 5.00086 4.42787 4.99959 5.20837V5.62504H4.16626C4.03968 5.62436 3.91461 5.65252 3.80054 5.70739C3.68647 5.76226 3.5864 5.84239 3.50792 5.94171C3.42444 6.04066 3.36516 6.15769 3.33479 6.28354C3.30441 6.40938 3.30377 6.54057 3.33292 6.66671L3.84959 8.74171C3.97295 9.21965 4.23505 9.65038 4.60283 9.97961C4.97061 10.3088 5.42762 10.5218 5.91626 10.5917L6.56626 16.425H5.83292C5.61191 16.425 5.39995 16.5128 5.24367 16.6691C5.08739 16.8254 4.99959 17.0374 4.99959 17.2584C4.99959 17.4794 5.08739 17.6914 5.24367 17.8476C5.39995 18.0039 5.61191 18.0917 5.83292 18.0917H14.1663C14.3873 18.0917 14.5992 18.0039 14.7555 17.8476C14.9118 17.6914 14.9996 17.4794 14.9996 17.2584C14.9996 17.0374 14.9118 16.8254 14.7555 16.6691C14.5992 16.5128 14.3873 16.425 14.1663 16.425H13.4329L14.0829 10.5917C14.5681 10.5167 15.0205 10.3004 15.3835 9.96992C15.7466 9.63945 16.0044 9.20938 16.1246 8.73337L16.6663 6.66671C16.6954 6.54057 16.6948 6.40938 16.6644 6.28354C16.634 6.15769 16.5747 6.04066 16.4913 5.94171ZM11.7496 16.4584H8.24959L7.59959 10.625H12.3996L11.7496 16.4584ZM14.5079 8.33337C14.4623 8.51827 14.3547 8.68196 14.2031 8.7972C14.0515 8.91243 13.865 8.97225 13.6746 8.96671H6.29959C6.10923 8.97225 5.92271 8.91243 5.77109 8.7972C5.61946 8.68196 5.51188 8.51827 5.46626 8.33337L5.23292 7.29171H14.7663L14.5079 8.33337Z" fill="#3B4168"/>
</svg>
