<svg width="16" height="16" viewBox="0 0 16 16" fill="none" xmlns="http://www.w3.org/2000/svg">
<path d="M7.26667 1.40002L13.866 2.34336L14.8087 8.94336L8.68067 15.0714C8.55565 15.1963 8.38611 15.2666 8.20933 15.2666C8.03256 15.2666 7.86302 15.1963 7.738 15.0714L1.138 8.47136C1.01302 8.34634 0.94281 8.1768 0.94281 8.00002C0.94281 7.82325 1.01302 7.65371 1.138 7.52869L7.26667 1.40002ZM7.738 2.81469L2.552 8.00002L8.20933 13.6567L13.3947 8.47136L12.688 3.52136L7.738 2.81469ZM9.15133 7.05736C8.90124 6.80717 8.76077 6.46788 8.76083 6.11412C8.76086 5.93896 8.79539 5.76552 8.86245 5.6037C8.92951 5.44189 9.02779 5.29486 9.15167 5.17102C9.27555 5.04719 9.42261 4.94896 9.58445 4.88196C9.74629 4.81496 9.91974 4.78049 10.0949 4.78052C10.4487 4.78058 10.7879 4.92117 11.038 5.17136C11.2881 5.42155 11.4286 5.76084 11.4285 6.11459C11.4284 6.46835 11.2879 6.80759 11.0377 7.05769C10.7875 7.30779 10.4482 7.44826 10.0944 7.4482C9.74068 7.44813 9.40143 7.30755 9.15133 7.05736Z" fill="currentColor"/>
</svg>
