<svg width="20" height="20" viewBox="0 0 20 20" fill="none" xmlns="http://www.w3.org/2000/svg">
<path d="M15 13.3333V11.6667H15.8333V3.33332H5V11.6958C5.13802 11.6762 5.27726 11.6665 5.41667 11.6667H6.66667V13.3333H5.41667C5.08515 13.3333 4.7672 13.465 4.53278 13.6994C4.29836 13.9339 4.16667 14.2518 4.16667 14.5833C4.16667 14.9148 4.29836 15.2328 4.53278 15.4672C4.7672 15.7016 5.08515 15.8333 5.41667 15.8333H8.33333V17.5H5.41667C4.64312 17.5 3.90125 17.1927 3.35427 16.6457C2.80729 16.0987 2.5 15.3569 2.5 14.5833V4.16666C2.5 3.50362 2.76339 2.86773 3.23223 2.39889C3.70107 1.93005 4.33696 1.66666 5 1.66666H16.6667C16.8877 1.66666 17.0996 1.75445 17.2559 1.91073C17.4122 2.06701 17.5 2.27898 17.5 2.49999V16.6667C17.5 16.8877 17.4122 17.0996 17.2559 17.2559C17.0996 17.4122 16.8877 17.5 16.6667 17.5H13.3333V15.8333H15.8333V13.3333H15ZM5.83333 4.16666H7.5V5.83332H5.83333V4.16666ZM5.83333 6.66666H7.5V8.33332H5.83333V6.66666ZM11.6667 14.1667V19.1667H10V14.1667H7.5L10.8333 9.99999L14.1667 14.1667H11.6667Z" fill="#0071CE"/>
</svg>
