<svg width="20" height="20" viewBox="0 0 20 20" fill="none" xmlns="http://www.w3.org/2000/svg">
<path d="M11.6669 9.1667H8.33361C8.11259 9.1667 7.90063 9.25449 7.74435 9.41077C7.58807 9.56705 7.50027 9.77902 7.50027 10C7.50027 10.221 7.58807 10.433 7.74435 10.5893C7.90063 10.7456 8.11259 10.8334 8.33361 10.8334H11.6669C11.888 10.8334 12.0999 10.7456 12.2562 10.5893C12.4125 10.433 12.5003 10.221 12.5003 10C12.5003 9.77902 12.4125 9.56705 12.2562 9.41077C12.0999 9.25449 11.888 9.1667 11.6669 9.1667ZM18.0919 9.40836L16.1336 7.50003V4.70003C16.1336 4.47902 16.0458 4.26706 15.8895 4.11077C15.7332 3.95449 15.5213 3.8667 15.3003 3.8667H12.5419L10.5919 1.90836C10.5145 1.83026 10.4223 1.76826 10.3208 1.72595C10.2192 1.68365 10.1103 1.66187 10.0003 1.66187C9.89026 1.66187 9.78134 1.68365 9.67979 1.72595C9.57824 1.76826 9.48608 1.83026 9.40861 1.90836L7.50027 3.8667H4.70027C4.47926 3.8667 4.2673 3.95449 4.11102 4.11077C3.95474 4.26706 3.86694 4.47902 3.86694 4.70003V7.50003L1.90861 9.40836C1.8305 9.48583 1.76851 9.578 1.7262 9.67955C1.68389 9.7811 1.66211 9.89002 1.66211 10C1.66211 10.11 1.68389 10.219 1.7262 10.3205C1.76851 10.4221 1.8305 10.5142 1.90861 10.5917L3.86694 12.5417V15.3C3.86694 15.521 3.95474 15.733 4.11102 15.8893C4.2673 16.0456 4.47926 16.1334 4.70027 16.1334H7.50027L9.45027 18.0917C9.52774 18.1698 9.61991 18.2318 9.72146 18.2741C9.82301 18.3164 9.93193 18.3382 10.0419 18.3382C10.152 18.3382 10.2609 18.3164 10.3624 18.2741C10.464 18.2318 10.5561 18.1698 10.6336 18.0917L12.5836 16.1334H15.3419C15.563 16.1334 15.7749 16.0456 15.9312 15.8893C16.0875 15.733 16.1753 15.521 16.1753 15.3V12.5417L18.1336 10.5917C18.2091 10.5115 18.2679 10.4172 18.3066 10.3141C18.3454 10.2111 18.3634 10.1014 18.3595 9.99134C18.3556 9.88131 18.33 9.77314 18.2841 9.67308C18.2381 9.57302 18.1728 9.48304 18.0919 9.40836ZM14.7169 11.6084C14.6382 11.6855 14.5756 11.7776 14.5326 11.8791C14.4897 11.9807 14.4674 12.0898 14.4669 12.2V14.4667H12.2003C12.09 14.4672 11.9809 14.4895 11.8794 14.5324C11.7778 14.5753 11.6858 14.638 11.6086 14.7167L10.0003 16.325L8.39194 14.7167C8.31476 14.638 8.22273 14.5753 8.12116 14.5324C8.0196 14.4895 7.91053 14.4672 7.80027 14.4667H5.53361V12.2C5.53315 12.0898 5.51082 11.9807 5.4679 11.8791C5.42499 11.7776 5.36235 11.6855 5.28361 11.6084L3.67527 10L5.28361 8.3917C5.36235 8.31452 5.42499 8.22248 5.4679 8.12092C5.51082 8.01936 5.53315 7.91029 5.53361 7.80003V5.53336H7.80027C7.91053 5.53291 8.0196 5.51057 8.12116 5.46766C8.22273 5.42475 8.31476 5.3621 8.39194 5.28336L10.0003 3.67503L11.6086 5.28336C11.6858 5.3621 11.7778 5.42475 11.8794 5.46766C11.9809 5.51057 12.09 5.53291 12.2003 5.53336H14.4669V7.80003C14.4674 7.91029 14.4897 8.01936 14.5326 8.12092C14.5756 8.22248 14.6382 8.31452 14.7169 8.3917L16.3253 10L14.7169 11.6084Z" fill="#3B4168"/>
</svg>
