<svg width="24" height="24" viewBox="0 0 24 24" fill="none" xmlns="http://www.w3.org/2000/svg">
<path d="M12 22C6.47715 22 2 17.5228 2 12C2 6.47715 6.47715 2 12 2C17.5228 2 22 6.47715 22 12C21.9939 17.5203 17.5203 21.9939 12 22ZM12 3.11111C7.0908 3.11111 3.11111 7.0908 3.11111 12C3.11111 16.9092 7.0908 20.8889 12 20.8889C16.9092 20.8889 20.8889 16.9092 20.8889 12C20.8833 7.09312 16.9069 3.11671 12 3.11111Z" fill="#0071CE"/>
<path d="M12.6567 19.7777H11.3442C10.8154 19.7764 10.3605 19.4035 10.2553 18.8853L9.90532 17.1423L9.83699 17.1188L8.36777 18.1021C7.92564 18.3966 7.33701 18.3375 6.96221 17.9611L6.03999 17.0388C5.66364 16.664 5.60458 16.0754 5.89893 15.6333L6.88471 14.1587C6.88393 14.1562 6.86249 14.1077 6.86193 14.1052L5.11577 13.7455C4.59704 13.6405 4.22376 13.1851 4.22266 12.6559V11.3437C4.22401 10.815 4.59689 10.36 5.1151 10.2548L6.85805 9.90483C6.85938 9.90106 6.88027 9.85061 6.8816 9.84678L5.89827 8.36728C5.60363 7.92495 5.6627 7.33605 6.03932 6.96106L6.96155 6.03883C7.33634 5.66236 7.92497 5.60329 8.3671 5.89778L9.84193 6.88356L9.90704 6.85211L10.2551 5.11461C10.3603 4.59632 10.8154 4.22342 11.3442 4.22217H12.6567C13.1854 4.22352 13.6404 4.59641 13.7455 5.11461L14.0955 6.85756L14.1639 6.88111L15.6331 5.89778C16.0754 5.6038 16.6636 5.66284 17.0387 6.03883L17.9609 6.96106C18.3372 7.3359 18.3963 7.92445 18.1019 8.36661L17.1171 9.84145L17.1485 9.90656L18.886 10.2546C19.4042 10.3599 19.777 10.815 19.7782 11.3437V12.6559C19.7771 13.1848 19.4041 13.6401 18.8858 13.7453L17.1428 14.0953L16.6247 13.8964L17.1396 14.1048L17.1242 14.1427L18.1026 15.6333C18.397 16.0754 18.3379 16.664 17.9615 17.0388L17.0393 17.9611C16.6646 18.3377 16.0758 18.3968 15.6338 18.1021L14.1589 17.1166L14.0938 17.1481L13.7458 18.8856C13.6405 19.4037 13.1854 19.7765 12.6567 19.7777ZM9.83843 16.0074C9.99193 16.0076 10.1438 16.0385 10.2852 16.0983C10.6463 16.2353 10.9133 16.5461 10.9943 16.9237L11.3445 18.6666H12.6567L13.0067 16.9237C13.0827 16.5563 13.3374 16.2512 13.6854 16.1107C14.0391 15.95 14.4503 15.9808 14.7762 16.1924L16.251 17.1782L17.1788 16.2504L16.193 14.7758C15.9851 14.4606 15.9497 14.062 16.0989 13.7151L16.6249 13.8966L16.1114 13.6842C16.2521 13.3365 16.5571 13.0821 16.9244 13.006L18.6671 12.6559V11.3437L16.9242 10.9937C16.5568 10.9177 16.2516 10.663 16.1112 10.315C15.9505 9.96129 15.9813 9.55007 16.1929 9.22422L17.1787 7.74933L16.2509 6.82156L14.7763 7.80734C14.4612 8.01556 14.0624 8.05094 13.7156 7.90145C13.3545 7.76446 13.0876 7.45374 13.0065 7.07617L12.6564 5.33328H11.3442L10.9942 7.07617C10.9182 7.44363 10.6635 7.74874 10.3155 7.88917C9.96182 8.05008 9.55048 8.01928 9.22471 7.8075L7.74993 6.82172L6.82216 7.7495L7.80793 9.22411C8.01564 9.53913 8.05112 9.93745 7.90238 10.2842C7.76522 10.6456 7.45425 10.9127 7.07638 10.9939L5.33377 11.344V12.6559L7.07666 13.0059C7.44392 13.082 7.74894 13.3364 7.88966 13.6841C8.05045 14.0379 8.01966 14.4494 7.80799 14.7754L6.82221 16.2503L7.74999 17.1781L9.2246 16.1923C9.4064 16.0713 9.62003 16.0069 9.83843 16.0074Z" fill="#0071CE"/>
<path d="M11.9996 14.2223C10.7723 14.2223 9.77734 13.2274 9.77734 12.0001C9.77734 10.7728 10.7723 9.77783 11.9996 9.77783C13.2269 9.77783 14.2218 10.7728 14.2218 12.0001C14.2204 13.2268 13.2263 14.2209 11.9996 14.2223ZM11.9996 10.8889C11.3859 10.8889 10.8885 11.3864 10.8885 12.0001C10.8885 12.6137 11.3859 13.1112 11.9996 13.1112C12.6132 13.1112 13.1107 12.6137 13.1107 12.0001C13.1101 11.3867 12.613 10.8896 11.9996 10.8889Z" fill="#0071CE"/>
</svg>
