<svg width="20" height="20" viewBox="0 0 20 20" fill="none" xmlns="http://www.w3.org/2000/svg">
<path d="M17.5006 3.33329V15.6008C17.5007 15.6816 17.4773 15.7608 17.4332 15.8285C17.3891 15.8963 17.3263 15.9498 17.2523 15.9825L10.0007 19.1916L2.74898 15.9833C2.67476 15.9505 2.61173 15.8968 2.56761 15.8287C2.5235 15.7606 2.50023 15.6811 2.50065 15.6V3.33329H0.833984V1.66663H19.1673V3.33329H17.5006ZM4.16732 3.33329V14.7875L10.0007 17.3708L15.834 14.7875V3.33329H4.16732ZM6.66732 6.66663H13.334V8.33329H6.66732V6.66663ZM6.66732 9.99996H13.334V11.6666H6.66732V9.99996Z" fill="#909EBB"/>
</svg>
