<svg width="20" height="20" viewBox="0 0 20 20" fill="none" xmlns="http://www.w3.org/2000/svg">
<path d="M10.0001 18.3334C5.39758 18.3334 1.66675 14.6026 1.66675 10.0001C1.66675 5.39758 5.39758 1.66675 10.0001 1.66675C14.6026 1.66675 18.3334 5.39758 18.3334 10.0001C18.3334 14.6026 14.6026 18.3334 10.0001 18.3334ZM10.0001 16.6667C11.7682 16.6667 13.4639 15.9644 14.7141 14.7141C15.9644 13.4639 16.6667 11.7682 16.6667 10.0001C16.6667 8.23197 15.9644 6.53628 14.7141 5.28604C13.4639 4.03579 11.7682 3.33341 10.0001 3.33341C8.23197 3.33341 6.53628 4.03579 5.28604 5.28604C4.03579 6.53628 3.33341 8.23197 3.33341 10.0001C3.33341 11.7682 4.03579 13.4639 5.28604 14.7141C6.53628 15.9644 8.23197 16.6667 10.0001 16.6667ZM5.83342 10.8334H7.50008C7.50008 11.4965 7.76347 12.1323 8.23231 12.6012C8.70116 13.07 9.33704 13.3334 10.0001 13.3334C10.6631 13.3334 11.299 13.07 11.7678 12.6012C12.2367 12.1323 12.5001 11.4965 12.5001 10.8334H14.1667C14.1667 11.9385 13.7278 12.9983 12.9464 13.7797C12.165 14.5611 11.1052 15.0001 10.0001 15.0001C8.89501 15.0001 7.83521 14.5611 7.0538 13.7797C6.2724 12.9983 5.83342 11.9385 5.83342 10.8334ZM6.66675 9.16675C6.33523 9.16675 6.01728 9.03505 5.78286 8.80063C5.54844 8.56621 5.41675 8.24827 5.41675 7.91675C5.41675 7.58523 5.54844 7.26729 5.78286 7.03286C6.01728 6.79844 6.33523 6.66675 6.66675 6.66675C6.99827 6.66675 7.31621 6.79844 7.55063 7.03286C7.78505 7.26729 7.91675 7.58523 7.91675 7.91675C7.91675 8.24827 7.78505 8.56621 7.55063 8.80063C7.31621 9.03505 6.99827 9.16675 6.66675 9.16675ZM13.3334 9.16675C13.0019 9.16675 12.684 9.03505 12.4495 8.80063C12.2151 8.56621 12.0834 8.24827 12.0834 7.91675C12.0834 7.58523 12.2151 7.26729 12.4495 7.03286C12.684 6.79844 13.0019 6.66675 13.3334 6.66675C13.6649 6.66675 13.9829 6.79844 14.2173 7.03286C14.4517 7.26729 14.5834 7.58523 14.5834 7.91675C14.5834 8.24827 14.4517 8.56621 14.2173 8.80063C13.9829 9.03505 13.6649 9.16675 13.3334 9.16675Z" fill="#6F7C98"/>
</svg>
