<svg width="24" height="24" viewBox="0 0 24 24" fill="none" xmlns="http://www.w3.org/2000/svg">
<path d="M17.0606 22.0001C16.762 21.9996 16.4684 21.923 16.2077 21.7775L12.0411 19.4655C12.0144 19.4508 11.9822 19.4508 11.9556 19.4655L7.78972 21.7775C7.20027 22.1038 6.47616 22.0644 5.92557 21.6761C5.37498 21.2878 5.09482 20.6189 5.2043 19.9541L6.02214 14.922C6.02704 14.892 6.01738 14.8615 5.99614 14.8398L2.49872 11.2404C2.03929 10.7681 1.88197 10.0788 2.091 9.45398C2.30003 8.82912 2.84042 8.37325 3.49156 8.27247L8.24664 7.54289C8.27649 7.53759 8.30195 7.51819 8.31497 7.4908L10.4081 3.01322C10.6965 2.39502 11.317 1.99991 11.9992 2C12.6814 2.00009 13.3017 2.39536 13.5901 3.01364L15.684 7.4908C15.6962 7.51806 15.7212 7.53743 15.7506 7.54247L20.5065 8.27247C21.1576 8.37349 21.6978 8.82951 21.9067 9.45441C22.1156 10.0793 21.9582 10.7685 21.4987 11.2408L18.0001 14.8398C17.9796 14.8617 17.9704 14.892 17.9751 14.9216L18.793 19.955C18.8757 20.4639 18.7314 20.9834 18.3981 21.3768C18.0649 21.7702 17.5761 21.998 17.0606 22.0001ZM11.9987 17.7866C12.2963 17.7869 12.5888 17.8631 12.8487 18.008L17.0162 20.32C17.045 20.3382 17.0822 20.3362 17.109 20.3151C17.1408 20.2962 17.1564 20.2586 17.1472 20.2227L16.3294 15.1894C16.2413 14.6391 16.4172 14.0795 16.8044 13.6786L20.3037 10.0791C20.3306 10.0545 20.3391 10.0155 20.3249 9.98189C20.3167 9.94796 20.288 9.92295 20.2532 9.91964L15.4987 9.18997C14.9185 9.10211 14.421 8.7293 14.1737 8.19714L12.079 3.71964C12.0623 3.68297 11.9341 3.68256 11.9178 3.71922L9.82389 8.19714C9.57579 8.72933 9.0779 9.10214 8.49739 9.19039L3.74322 9.91956C3.70849 9.92287 3.67969 9.94788 3.67155 9.98181C3.65722 10.0153 3.66572 10.0542 3.69272 10.0786L7.19122 13.6786C7.57903 14.0791 7.75545 14.6389 7.6673 15.1894L6.84947 20.222C6.84024 20.2581 6.85579 20.2959 6.88772 20.3151C6.91446 20.3363 6.95164 20.3383 6.98047 20.3201L11.1471 18.0081C11.4076 17.8631 11.7007 17.7869 11.9987 17.7866Z" fill="#0071CE"/>
</svg>
