<svg width="20" height="20" viewBox="0 0 20 20" fill="none" xmlns="http://www.w3.org/2000/svg">
<path d="M15.7087 13.075C15.5525 12.9198 15.3413 12.8326 15.1212 12.8326C14.901 12.8326 14.6898 12.9198 14.5337 13.075L12.817 14.7916C12.7142 14.8952 12.6404 15.024 12.603 15.165C12.5656 15.3061 12.5659 15.4545 12.6039 15.5954C12.6419 15.7363 12.7162 15.8648 12.8194 15.9679C12.9226 16.0711 13.0511 16.1454 13.192 16.1833L13.4087 16.2416L12.742 16.9083C12.6639 16.9858 12.6019 17.0779 12.5596 17.1795C12.5173 17.281 12.4955 17.3899 12.4955 17.5C12.4955 17.61 12.5173 17.7189 12.5596 17.8204C12.6019 17.922 12.6639 18.0142 12.742 18.0916C12.8195 18.1697 12.9116 18.2317 13.0132 18.274C13.1147 18.3163 13.2237 18.3381 13.3337 18.3381C13.4437 18.3381 13.5526 18.3163 13.6541 18.274C13.7557 18.2317 13.8479 18.1697 13.9253 18.0916L15.592 16.425C15.7006 16.3189 15.7781 16.1853 15.8163 16.0384C15.8545 15.8916 15.8518 15.7371 15.8087 15.5916C15.771 15.4496 15.6964 15.3201 15.5925 15.2162C15.4886 15.1122 15.359 15.0377 15.217 15L15.0003 14.95L15.692 14.25C15.8494 14.096 15.9396 13.8861 15.9427 13.6659C15.9458 13.4457 15.8617 13.2333 15.7087 13.075ZM6.59199 16.2416L6.80866 16.1833C6.94958 16.1454 7.07807 16.0711 7.18127 15.9679C7.28448 15.8648 7.35878 15.7363 7.39675 15.5954C7.43472 15.4545 7.43502 15.3061 7.39762 15.165C7.36023 15.024 7.28645 14.8952 7.18366 14.7916L5.46699 13.075C5.30757 12.9384 5.10251 12.8671 4.89278 12.8752C4.68305 12.8833 4.4841 12.9702 4.33569 13.1187C4.18728 13.2671 4.10033 13.466 4.09223 13.6757C4.08413 13.8855 4.15547 14.0905 4.29199 14.25L4.98366 14.95L4.76699 15C4.62496 15.0377 4.49542 15.1122 4.39152 15.2162C4.28761 15.3201 4.21302 15.4496 4.17533 15.5916C4.13215 15.7371 4.12951 15.8916 4.16769 16.0384C4.20587 16.1853 4.28343 16.3189 4.39199 16.425L6.05866 18.0916C6.13613 18.1697 6.2283 18.2317 6.32985 18.274C6.4314 18.3163 6.54032 18.3381 6.65033 18.3381C6.76034 18.3381 6.86926 18.3163 6.97081 18.274C7.07236 18.2317 7.16452 18.1697 7.24199 18.0916C7.3201 18.0142 7.3821 17.922 7.4244 17.8204C7.46671 17.7189 7.48849 17.61 7.48849 17.5C7.48849 17.3899 7.46671 17.281 7.4244 17.1795C7.3821 17.0779 7.3201 16.9858 7.24199 16.9083L6.59199 16.2416ZM17.5003 3.33329C17.2793 3.33329 17.0674 3.42109 16.9111 3.57737C16.7548 3.73365 16.667 3.94561 16.667 4.16663H14.167C14.167 3.50358 13.9036 2.8677 13.4348 2.39886C12.9659 1.93002 12.33 1.66663 11.667 1.66663H8.33366C7.67062 1.66663 7.03473 1.93002 6.56589 2.39886C6.09705 2.8677 5.83366 3.50358 5.83366 4.16663H3.33366C3.33366 3.94561 3.24586 3.73365 3.08958 3.57737C2.9333 3.42109 2.72134 3.33329 2.50033 3.33329C2.27931 3.33329 2.06735 3.42109 1.91107 3.57737C1.75479 3.73365 1.66699 3.94561 1.66699 4.16663V5.83329C1.66699 6.05431 1.75479 6.26627 1.91107 6.42255C2.06735 6.57883 2.27931 6.66663 2.50033 6.66663C2.72134 6.66663 2.9333 6.57883 3.08958 6.42255C3.24586 6.26627 3.33366 6.05431 3.33366 5.83329H5.83366V7.49996C5.83339 8.01717 5.99354 8.52173 6.29204 8.94411C6.59054 9.36649 7.0127 9.68589 7.50033 9.85829V10.8333C7.50033 11.2753 7.67592 11.6992 7.98848 12.0118C8.30104 12.3244 8.72497 12.5 9.16699 12.5V17.5C9.16699 17.721 9.25479 17.9329 9.41107 18.0892C9.56735 18.2455 9.77931 18.3333 10.0003 18.3333C10.2213 18.3333 10.4333 18.2455 10.5896 18.0892C10.7459 17.9329 10.8337 17.721 10.8337 17.5V12.5C11.2757 12.5 11.6996 12.3244 12.0122 12.0118C12.3247 11.6992 12.5003 11.2753 12.5003 10.8333V9.85829C12.988 9.68589 13.4101 9.36649 13.7086 8.94411C14.0071 8.52173 14.1673 8.01717 14.167 7.49996V5.83329H16.667C16.667 6.05431 16.7548 6.26627 16.9111 6.42255C17.0674 6.57883 17.2793 6.66663 17.5003 6.66663C17.7213 6.66663 17.9333 6.57883 18.0896 6.42255C18.2459 6.26627 18.3337 6.05431 18.3337 5.83329V4.16663C18.3337 3.94561 18.2459 3.73365 18.0896 3.57737C17.9333 3.42109 17.7213 3.33329 17.5003 3.33329ZM12.5003 7.49996C12.5003 7.72097 12.4125 7.93293 12.2562 8.08922C12.1 8.2455 11.888 8.33329 11.667 8.33329C11.446 8.33329 11.234 8.42109 11.0777 8.57737C10.9215 8.73365 10.8337 8.94561 10.8337 9.16663V10.8333H9.16699V9.16663C9.16699 8.94561 9.0792 8.73365 8.92292 8.57737C8.76664 8.42109 8.55467 8.33329 8.33366 8.33329C8.11265 8.33329 7.90068 8.2455 7.7444 8.08922C7.58812 7.93293 7.50033 7.72097 7.50033 7.49996V4.16663C7.50033 3.94561 7.58812 3.73365 7.7444 3.57737C7.90068 3.42109 8.11265 3.33329 8.33366 3.33329H11.667C11.888 3.33329 12.1 3.42109 12.2562 3.57737C12.4125 3.73365 12.5003 3.94561 12.5003 4.16663V7.49996ZM10.0003 4.99996C9.77931 4.99996 9.56735 5.08776 9.41107 5.24404C9.25479 5.40032 9.16699 5.61228 9.16699 5.83329V6.66663C9.16699 6.88764 9.25479 7.0996 9.41107 7.25588C9.56735 7.41216 9.77931 7.49996 10.0003 7.49996C10.2213 7.49996 10.4333 7.41216 10.5896 7.25588C10.7459 7.0996 10.8337 6.88764 10.8337 6.66663V5.83329C10.8337 5.61228 10.7459 5.40032 10.5896 5.24404C10.4333 5.08776 10.2213 4.99996 10.0003 4.99996Z" fill="#3B4168"/>
</svg>
