<svg width="64" height="64" viewBox="0 0 64 64" fill="none" xmlns="http://www.w3.org/2000/svg">
<path opacity="0.4" d="M40.0518 24.1401C40.0518 28.6358 36.4073 32.2803 31.9116 32.2803C27.416 32.2803 23.7715 28.6358 23.7715 24.1401C23.7715 19.6445 27.416 16 31.9116 16C36.4073 16 40.0518 19.6445 40.0518 24.1401Z" fill="#0071CE" stroke="#0071CE" stroke-width="1.5" stroke-linecap="round" stroke-linejoin="round"/>
<path d="M19 43.6016C18.9978 43.0294 19.1258 42.4641 19.3743 41.9487C20.154 40.3892 22.3528 39.5627 24.1773 39.1885C25.4931 38.9077 26.8271 38.7201 28.1694 38.6271C30.6545 38.4088 33.1539 38.4088 35.639 38.6271C36.9811 38.7212 38.3151 38.9087 39.6311 39.1885C41.4556 39.5627 43.6544 40.3113 44.4341 41.9487C44.9338 42.9995 44.9338 44.2194 44.4341 45.2702C43.6544 46.9076 41.4556 47.6561 39.6311 48.0148C38.3168 48.3072 36.9823 48.5001 35.639 48.5918C33.6163 48.7632 31.5842 48.7945 29.5573 48.6853C29.0894 48.6853 28.6372 48.6853 28.1694 48.5918C26.8311 48.5012 25.5017 48.3083 24.1929 48.0148C22.3528 47.6561 20.1696 46.9076 19.3743 45.2702C19.1271 44.7487 18.9992 44.1787 19 43.6016Z" fill="#0071CE" stroke="#0071CE" stroke-width="1.5" stroke-linecap="round" stroke-linejoin="round"/>
<path d="M59 32C59 46.9117 46.9117 59 32 59C17.0883 59 5 46.9117 5 32C5 17.0883 17.0883 5 32 5C46.9117 5 59 17.0883 59 32ZM7.4238 32C7.4238 45.5731 18.4269 56.5762 32 56.5762C45.5731 56.5762 56.5762 45.5731 56.5762 32C56.5762 18.4269 45.5731 7.4238 32 7.4238C18.4269 7.4238 7.4238 18.4269 7.4238 32Z" fill="#0071CE"/>
</svg>
