<svg width="20" height="20" viewBox="0 0 20 20" fill="none" xmlns="http://www.w3.org/2000/svg">
<g clip-path="url(#clip0)">
<path d="M9.99992 11.667V13.3336C8.67384 13.3336 7.40207 13.8604 6.46438 14.7981C5.5267 15.7358 4.99992 17.0075 4.99992 18.3336H3.33325C3.33325 16.5655 4.03563 14.8698 5.28587 13.6196C6.53612 12.3693 8.23181 11.667 9.99992 11.667ZM9.99992 10.8336C7.23742 10.8336 4.99992 8.59612 4.99992 5.83362C4.99992 3.07112 7.23742 0.833618 9.99992 0.833618C12.7624 0.833618 14.9999 3.07112 14.9999 5.83362C14.9999 8.59612 12.7624 10.8336 9.99992 10.8336ZM9.99992 9.16695C11.8416 9.16695 13.3333 7.67528 13.3333 5.83362C13.3333 3.99195 11.8416 2.50028 9.99992 2.50028C8.15825 2.50028 6.66659 3.99195 6.66659 5.83362C6.66659 7.67528 8.15825 9.16695 9.99992 9.16695ZM14.9999 17.917L12.5508 19.2045L13.0183 16.4778L11.0374 14.5461L13.7758 14.1478L14.9999 11.667L16.2249 14.1478L18.9624 14.5461L16.9816 16.4778L17.4483 19.2045L14.9999 17.917Z" fill="#6F7C98"/>
</g>
<defs>
<clipPath id="clip0">
<rect width="20" height="20" fill="white" transform="translate(0 0.000244141)"/>
</clipPath>
</defs>
</svg>
