<svg width="20" height="20" viewBox="0 0 20 20" fill="none" xmlns="http://www.w3.org/2000/svg">
<path d="M10.0001 18.3327C5.39758 18.3327 1.66675 14.6018 1.66675 9.99935C1.66675 5.39685 5.39758 1.66602 10.0001 1.66602C14.6026 1.66602 18.3334 5.39685 18.3334 9.99935C18.3334 14.6018 14.6026 18.3327 10.0001 18.3327ZM8.09175 16.3885C7.26959 14.6446 6.79331 12.7579 6.68925 10.8327H3.38508C3.54724 12.1151 4.07835 13.3228 4.91389 14.3091C5.74943 15.2954 6.85343 16.0178 8.09175 16.3885ZM8.35841 10.8327C8.48425 12.8652 9.06508 14.7744 10.0001 16.4594C10.9603 14.7298 11.5213 12.8072 11.6417 10.8327H8.35841ZM16.6151 10.8327H13.3109C13.2069 12.7579 12.7306 14.6446 11.9084 16.3885C13.1467 16.0178 14.2507 15.2954 15.0863 14.3091C15.9218 13.3228 16.4529 12.1151 16.6151 10.8327ZM3.38508 9.16602H6.68925C6.79331 7.24084 7.26959 5.35409 8.09175 3.61018C6.85343 3.98092 5.74943 4.70331 4.91389 5.6896C4.07835 6.67588 3.54724 7.8836 3.38508 9.16602ZM8.35925 9.16602H11.6409C11.5207 7.19151 10.9601 5.26896 10.0001 3.53935C9.03982 5.26889 8.47888 7.19145 8.35841 9.16602H8.35925ZM11.9084 3.61018C12.7306 5.35409 13.2069 7.24084 13.3109 9.16602H16.6151C16.4529 7.8836 15.9218 6.67588 15.0863 5.6896C14.2507 4.70331 13.1467 3.98092 11.9084 3.61018Z" fill="#909EBB"/>
</svg>
