<svg width="20" height="20" viewBox="0 0 20 20" fill="none" xmlns="http://www.w3.org/2000/svg">
<path d="M12.5 3.66667H12V4.16667V7.5V8H12.5H15.8333H16.3333V7.5V4.16667V3.66667H15.8333H12.5ZM12.5 12H12V12.5V15.8333V16.3333H12.5H15.8333H16.3333V15.8333V12.5V12H15.8333H12.5ZM4.16667 3.66667H3.66667V4.16667V7.5V8H4.16667H7.5H8V7.5V4.16667V3.66667H7.5H4.16667ZM4.16667 12H3.66667V12.5V15.8333V16.3333H4.16667H7.5H8V15.8333V12.5V12H7.5H4.16667ZM3 3H8.66667V8.66667H3V3ZM3 11.3333H8.66667V17H3V11.3333ZM11.3333 3H17V8.66667H11.3333V3ZM11.3333 11.3333H17V17H11.3333V11.3333Z" fill="#09121F" stroke="#0071CE"/>
</svg>
