<svg width="599" height="80" viewBox="0 0 599 80" fill="none" xmlns="http://www.w3.org/2000/svg">
<path fill-rule="evenodd" clip-rule="evenodd" d="M277.086 45.5018H258.208C255.421 45.5018 255.421 49.3942 258.208 49.3942C260.742 49.3942 263.149 49.3942 265.557 49.3942C265.683 49.3942 265.937 49.3942 266.063 49.3942H270.751C273.919 49.3942 277.593 52.0786 277.593 55.7026V56.7764C277.593 60.4003 273.919 63.0848 270.751 63.0848H269.738H265.557H265.05H250.226V58.1186H269.738C272.652 58.1186 272.525 54.2262 269.738 54.2262C267.204 54.2262 264.796 54.2262 262.389 54.2262C262.262 54.2262 262.009 54.2262 261.882 54.2262H257.195C254.027 54.2262 250.353 51.5417 250.353 47.9178V46.844C250.353 43.22 254.027 40.5356 257.195 40.5356H262.516H277.213V45.5018H277.086ZM206.769 49.26H219.439C222.226 49.26 222.226 45.3675 219.439 45.3675H216.018H211.204H207.783C206.643 45.3675 205.756 46.1729 205.502 47.2466V49.26C206.009 49.3942 206.389 49.26 206.769 49.26ZM227.421 58.1186H207.91C205.122 58.1186 205.122 54.2262 207.91 54.2262C210.443 54.2262 212.851 54.2262 215.258 54.2262C215.385 54.2262 215.638 54.2262 215.765 54.2262H220.452C223.62 54.2262 227.294 51.5417 227.294 47.9178V46.844C227.294 43.22 223.62 40.5356 220.452 40.5356H216.018H215.131H211.077H206.643C203.475 40.5356 199.801 43.22 199.801 46.844V47.3809V55.7026V56.7764C199.801 60.4003 203.475 63.0848 206.643 63.0848H227.294V58.1186H227.421ZM306.48 59.3266V61.7425V62.9505H304.072H298.751C295.584 62.9505 291.909 60.2661 291.909 56.6421V50.0653V46.844V32.7507C291.909 29.6636 294.19 27.2477 297.104 27.2477H297.738V40.6698C298.118 40.6698 298.498 40.5356 298.751 40.5356H304.072H304.833V45.5018H301.285H297.738V49.26V51.4075V54.3604C297.738 56.3737 299.385 58.1186 301.285 58.1186H306.48V59.3266ZM200.054 40.5356C197.52 40.5356 193.973 40.1329 192.072 43.3542L183.457 57.179L174.842 43.3542C173.068 40.1329 169.52 40.5356 166.86 40.5356L178.516 59.595C179.656 61.4741 181.05 62.8163 182.697 63.0848C184.724 63.3532 186.624 62.1452 188.145 59.595C191.946 53.6893 196.127 46.9782 200.054 40.5356ZM124.416 45.3675C124.416 42.5489 126.19 40.5356 128.851 40.5356H132.652C133.032 40.5356 133.412 40.6698 134.172 41.3409L150.009 57.7159V44.2938C150.009 41.4751 151.783 40.4014 154.443 40.4014H158.244C156.851 40.5356 155.837 40.9382 155.837 44.8307V59.4608C155.837 60.803 154.824 62.8163 153.557 62.8163H149.629H148.362C147.095 62.8163 146.081 61.6083 145.195 60.6688L130.371 45.0991C130.371 45.2333 130.371 45.3675 130.371 45.636V62.8163H124.543V45.3675H124.416ZM231.982 45.3675C231.982 42.5489 234.516 40.5356 237.176 40.5356H237.81H246.425H248.199V45.5018H246.425H241.231C239.33 45.5018 237.683 47.2466 237.683 49.26V63.0848H231.855V45.3675H231.982ZM336 79.9966H335.367C332.452 79.9966 330.172 77.5807 330.172 74.4936V62.8163C329.792 62.8163 329.412 62.9505 329.158 62.9505H319.909H315.222C312.054 62.9505 308.38 60.2661 308.38 56.6421V46.844C308.38 43.6227 311.294 41.2067 314.081 40.6698V47.9178V52.8839V55.7026C314.081 57.0448 315.095 57.9843 316.362 57.9843H328.145C329.158 57.9843 330.172 57.179 330.299 56.1052C330.299 55.971 330.299 55.7026 330.299 55.5684V52.7497V49.9311V46.7098C330.299 43.4884 333.213 41.0725 336 40.5356V47.7835V55.8368V56.6421V79.9966ZM281.9 45.3675C281.9 42.5489 284.434 40.5356 287.095 40.5356H287.728V62.9505H281.9V45.3675ZM98.19 40.6698C95.276 41.2067 92.4887 43.7569 92.4887 46.844V56.6421C92.4887 60.2661 96.1629 62.9505 99.3303 62.9505H106.425H108.706H113.394C116.561 62.9505 120.235 60.2661 120.235 56.6421V47.7835V40.5356C117.321 41.0725 114.534 43.6227 114.534 46.7098C114.534 49.6626 114.534 52.6155 114.534 55.5684C114.534 56.9106 113.52 57.9843 112.253 57.9843H106.425H100.597C99.3303 57.9843 98.3167 56.9106 98.3167 55.5684V53.8235V47.7835V40.6698H98.19ZM160.145 45.3675C160.145 42.5489 162.679 40.5356 165.339 40.5356H165.973V62.9505H160.145V45.3675ZM0 18.1206C0 15.302 2.53394 13.2886 5.19457 13.2886H5.82805V35.7036H0V18.1206ZM61.3213 17.1811C61.3213 14.3624 63.095 13.2886 65.7557 13.2886H69.5566C68.0362 13.4229 67.1493 13.8255 67.1493 17.7179V32.3481C67.1493 33.6903 66.1357 35.7036 64.8688 35.7036H59.5475C58.2805 35.7036 57.267 34.4956 56.3801 33.5561L41.5566 18.1206V32.4823C41.5566 33.8245 40.543 35.8378 39.276 35.8378H33.9547C32.6878 35.8378 31.6742 34.6298 30.7873 33.6903L15.9638 18.1206C15.9638 18.2548 15.9638 18.3891 15.9638 18.6575V35.8378H10.009V18.1206C10.009 15.302 11.7828 13.2886 14.4434 13.2886H18.2443C18.6244 13.2886 19.0045 13.4229 19.7647 14.094L35.6018 30.469V17.0468C35.6018 14.2282 37.3756 13.1544 40.0362 13.1544H43.8371C44.2172 13.1544 44.5973 13.2886 45.3575 13.9598L61.1946 30.3348V17.1811H61.3213ZM226.787 18.2548H207.91C205.122 18.2548 205.122 22.1473 207.91 22.1473C210.443 22.1473 212.851 22.1473 215.258 22.1473C215.385 22.1473 215.638 22.1473 215.765 22.1473H220.452C223.62 22.1473 227.294 24.8317 227.294 28.4557V29.5294C227.294 33.1534 223.62 35.8378 220.452 35.8378H219.439H215.258H214.751H199.928V30.8716H219.439C222.353 30.8716 222.226 26.9792 219.439 26.9792C216.905 26.9792 214.498 26.9792 212.09 26.9792C211.964 26.9792 211.71 26.9792 211.584 26.9792H206.896C203.729 26.9792 200.054 24.2948 200.054 20.6708V19.597C200.054 15.9731 203.729 13.2886 206.896 13.2886H212.217H226.787V18.2548ZM189.285 18.1206C189.285 15.302 191.819 13.2886 194.48 13.2886H195.113V35.7036H189.285V18.1206ZM173.321 0.000732422V27.1134C173.321 29.1268 174.968 30.8716 176.869 30.8716H184.597V32.0796V34.4956V35.7036H179.656H174.335C171.167 35.7036 167.493 33.0192 167.493 29.3952V5.50381C167.493 2.41672 169.774 0.000732422 172.688 0.000732422H173.321ZM92.362 35.7036H90.4615H87.5475H85.267H85.1403H78.2986C75.1312 35.7036 71.457 33.0192 71.457 29.3952V19.597C71.457 15.9731 75.1312 13.2886 78.2986 13.2886H79.819H81.9728H83.6199H86.5339H92.2353C95.4027 13.2886 99.0769 15.9731 99.0769 19.597V29.3952C99.3303 33.0192 95.5294 35.7036 92.362 35.7036ZM93.5023 28.4557V20.6708C93.5023 19.3286 92.4887 18.2548 91.2217 18.2548H79.4389C78.4253 18.2548 77.4118 19.0602 77.1584 20.2682C77.1584 20.4024 77.1584 21.3419 77.1584 21.4761V28.4557C77.1584 29.7979 78.1719 30.8716 79.4389 30.8716H85.267H91.095C92.4887 30.8716 93.5023 29.7979 93.5023 28.4557ZM124.29 35.7036H119.602H119.475H119.348H119.222H119.095H118.968H118.842H118.715H118.588H118.462H118.335H118.208H118.081H117.955H117.828H117.701H117.575H110.1C109.719 35.7036 109.339 35.7036 109.086 35.5694V47.2466C109.086 50.3337 106.805 52.7497 103.891 52.7497H103.258V19.597C103.258 15.9731 106.932 13.2886 110.1 13.2886H110.986H115.294H116.561H124.416C127.584 13.2886 131.258 15.9731 131.258 19.597V29.3952C131.258 33.0192 127.457 35.7036 124.29 35.7036ZM125.557 28.5899V27.7845V20.6708C125.557 19.3286 124.543 18.2548 123.403 18.2548H123.276H111.493C110.226 18.2548 109.213 19.3286 109.213 20.6708V28.4557C109.213 29.7979 110.226 30.8716 111.493 30.8716H123.276C124.416 30.8716 125.43 29.7979 125.557 28.5899ZM111.367 18.2548C111.24 18.2548 111.24 18.2548 111.113 18.2548C111.113 18.2548 111.24 18.2548 111.367 18.2548ZM110.986 18.2548C110.86 18.2548 110.733 18.2548 110.606 18.3891C110.86 18.3891 110.86 18.2548 110.986 18.2548ZM156.471 35.7036H154.57H151.656H149.502H149.376H142.534C139.367 35.7036 135.692 33.0192 135.692 29.3952V19.597C135.692 15.9731 139.367 13.2886 142.534 13.2886H143.928H146.081H147.729H150.643H156.344C159.511 13.2886 163.186 15.9731 163.186 19.597V29.3952C163.312 33.0192 159.638 35.7036 156.471 35.7036ZM157.611 28.4557V20.6708C157.611 19.3286 156.597 18.2548 155.33 18.2548H143.548C142.534 18.2548 141.52 19.0602 141.267 20.2682C141.267 20.4024 141.267 21.3419 141.267 21.4761V28.4557C141.267 29.7979 142.281 30.8716 143.548 30.8716H149.376H155.204C156.597 30.8716 157.611 29.7979 157.611 28.4557Z" fill="#3B4168"/>
<path d="M419.945 55.451V67.4677H417.183V57.717H411.762V67.4677H409V55.451H419.945Z" fill="#3B4168"/>
<path d="M433.544 55.451V67.4677H430.799V57.717H426.681L426.596 60.2234C426.538 61.9286 426.401 63.3134 426.184 64.3777C425.966 65.4306 425.6 66.2432 425.086 66.8154C424.583 67.3762 423.873 67.6566 422.959 67.6566C422.581 67.6566 422.124 67.5936 421.586 67.4677L421.758 65.1159C421.906 65.1617 422.072 65.1846 422.255 65.1846C422.918 65.1846 423.382 64.7955 423.645 64.0172C423.908 63.2276 424.074 61.9973 424.142 60.3264L424.314 55.451H433.544Z" fill="#3B4168"/>
<path d="M444.675 64.8927H439.099L438.035 67.4677H435.188L440.54 55.451H443.285L448.655 67.4677H445.738L444.675 64.8927ZM443.8 62.7812L441.895 58.1805L439.991 62.7812H443.8Z" fill="#3B4168"/>
<path d="M458.822 57.717H454.98V67.4677H452.235V57.717H448.409V55.451H458.822V57.717Z" fill="#3B4168"/>
<path d="M474.622 61.4251C474.622 63.0158 474.079 64.269 472.992 65.1846C471.917 66.0887 470.367 66.5922 468.343 66.6952V67.9999H465.787V66.6781C463.751 66.5636 462.19 66.0543 461.103 65.1502C460.028 64.2347 459.491 62.993 459.491 61.4251C459.491 59.8457 460.028 58.6097 461.103 57.717C462.19 56.8129 463.751 56.2979 465.787 56.172V54.936H468.343V56.1549C470.367 56.2693 471.917 56.7843 472.992 57.6999C474.079 58.6154 474.622 59.8572 474.622 61.4251ZM468.343 64.5151C469.555 64.4006 470.459 64.0916 471.054 63.5881C471.648 63.0731 471.946 62.3463 471.946 61.4079C471.946 59.5768 470.745 58.5582 468.343 58.3522V64.5151ZM462.184 61.4251C462.184 63.2333 463.385 64.2633 465.787 64.5151V58.3522C464.563 58.4667 463.654 58.7757 463.059 59.2792C462.476 59.7713 462.184 60.4866 462.184 61.4251Z" fill="#3B4168"/>
<path d="M482.431 67.6737C481.184 67.6737 480.058 67.4048 479.051 66.8669C478.056 66.329 477.273 65.5908 476.701 64.6524C476.141 63.7025 475.86 62.6382 475.86 61.4594C475.86 60.2806 476.141 59.222 476.701 58.2835C477.273 57.3337 478.056 56.5898 479.051 56.0519C480.058 55.514 481.184 55.245 482.431 55.245C483.678 55.245 484.799 55.514 485.794 56.0519C486.789 56.5898 487.572 57.3337 488.144 58.2835C488.716 59.222 489.002 60.2806 489.002 61.4594C489.002 62.6382 488.716 63.7025 488.144 64.6524C487.572 65.5908 486.789 66.329 485.794 66.8669C484.799 67.4048 483.678 67.6737 482.431 67.6737ZM482.431 65.3047C483.14 65.3047 483.781 65.1445 484.353 64.8241C484.924 64.4922 485.37 64.0344 485.691 63.4507C486.022 62.8671 486.188 62.2033 486.188 61.4594C486.188 60.7155 486.022 60.0517 485.691 59.468C485.37 58.8844 484.924 58.4323 484.353 58.1119C483.781 57.78 483.14 57.614 482.431 57.614C481.722 57.614 481.081 57.78 480.51 58.1119C479.938 58.4323 479.486 58.8844 479.154 59.468C478.834 60.0517 478.674 60.7155 478.674 61.4594C478.674 62.2033 478.834 62.8671 479.154 63.4507C479.486 64.0344 479.938 64.4922 480.51 64.8241C481.081 65.1445 481.722 65.3047 482.431 65.3047Z" fill="#3B4168"/>
<path d="M496.341 55.451C497.404 55.451 498.325 55.6284 499.103 55.9832C499.892 56.338 500.498 56.8415 500.921 57.4939C501.345 58.1462 501.556 58.9187 501.556 59.8114C501.556 60.6926 501.345 61.4651 500.921 62.1289C500.498 62.7812 499.892 63.2848 499.103 63.6396C498.325 63.9829 497.404 64.1546 496.341 64.1546H493.922V67.4677H491.143V55.451H496.341ZM496.186 61.8886C497.021 61.8886 497.656 61.7112 498.091 61.3564C498.525 60.9902 498.743 60.4752 498.743 59.8114C498.743 59.1362 498.525 58.6212 498.091 58.2664C497.656 57.9002 497.021 57.717 496.186 57.717H493.922V61.8886H496.186Z" fill="#3B4168"/>
<path d="M514.318 67.4677L514.3 60.2749L510.766 66.1974H509.531L505.997 60.4122V67.4677H503.39V55.451H505.688L510.183 62.9186L514.609 55.451H516.908L516.925 67.4677H514.318Z" fill="#3B4168"/>
<path d="M528.04 64.8927H522.465L521.401 67.4677H518.553L523.906 55.451H526.651L532.02 67.4677H529.104L528.04 64.8927ZM527.165 62.7812L525.261 58.1805L523.357 62.7812H527.165Z" fill="#3B4168"/>
<path d="M418.298 18.785V21.0167H409V9H418.075V11.2317H411.762V13.841H417.338V16.004H411.762V18.785H418.298Z" fill="#3B4168"/>
<path d="M432.93 18.7507V23.5059H430.356V21.0167H421.881V23.5059H419.308L419.325 18.7507H419.806C420.526 18.7278 421.035 18.2014 421.332 17.1714C421.63 16.1414 421.813 14.6707 421.881 12.7595L422.019 9H431.248V18.7507H432.93ZM424.335 13.017C424.277 14.4476 424.157 15.6492 423.974 16.622C423.791 17.5834 423.511 18.2929 423.134 18.7507H428.503V11.266H424.386L424.335 13.017Z" fill="#3B4168"/>
<path d="M434.8 9H437.563V16.828L443.293 9H445.9V21.0167H443.155V13.2058L437.425 21.0167H434.8V9Z" fill="#3B4168"/>
<path d="M459.904 9V21.0167H457.125V16.0899H451.669V21.0167H448.89V9H451.669V13.738H457.125V9H459.904Z" fill="#3B4168"/>
<path d="M471.045 18.4417H465.469L464.405 21.0167H461.558L466.91 9H469.655L475.025 21.0167H472.108L471.045 18.4417ZM470.17 16.3302L468.265 11.7295L466.361 16.3302H470.17Z" fill="#3B4168"/>
<path d="M485.587 9V21.0167H482.843V17.8237H480.303L478.176 21.0167H475.243L477.747 17.3945C476.935 17.0626 476.312 16.5648 475.877 15.901C475.443 15.2258 475.225 14.419 475.225 13.4805C475.225 12.5535 475.437 11.7581 475.86 11.0943C476.283 10.4191 476.884 9.90411 477.662 9.54934C478.439 9.18311 479.354 9 480.406 9H485.587ZM480.475 11.266C479.686 11.266 479.08 11.4491 478.657 11.8153C478.245 12.1816 478.039 12.7252 478.039 13.4462C478.039 14.1443 478.239 14.6822 478.639 15.0599C479.04 15.4375 479.629 15.6264 480.406 15.6264H482.843V11.266H480.475Z" fill="#3B4168"/>
<path d="M414.571 44.6738C413.324 44.6738 412.197 44.4049 411.191 43.867C410.196 43.3291 409.412 42.5909 408.841 41.6525C408.28 40.7026 408 39.6382 408 38.4595C408 37.2807 408.28 36.2221 408.841 35.2836C409.412 34.3337 410.196 33.5898 411.191 33.0519C412.197 32.5141 413.324 32.2451 414.571 32.2451C415.817 32.2451 416.938 32.5141 417.933 33.0519C418.928 33.5898 419.712 34.3337 420.283 35.2836C420.855 36.2221 421.141 37.2807 421.141 38.4595C421.141 39.6382 420.855 40.7026 420.283 41.6525C419.712 42.5909 418.928 43.3291 417.933 43.867C416.938 44.4049 415.817 44.6738 414.571 44.6738ZM414.571 42.3048C415.28 42.3048 415.92 42.1446 416.492 41.8241C417.064 41.4922 417.51 41.0345 417.83 40.4508C418.162 39.8671 418.328 39.2033 418.328 38.4595C418.328 37.7156 418.162 37.0518 417.83 36.4681C417.51 35.8844 417.064 35.4324 416.492 35.1119C415.92 34.7801 415.28 34.6141 414.571 34.6141C413.862 34.6141 413.221 34.7801 412.649 35.1119C412.077 35.4324 411.626 35.8844 411.294 36.4681C410.974 37.0518 410.814 37.7156 410.814 38.4595C410.814 39.2033 410.974 39.8671 411.294 40.4508C411.626 41.0345 412.077 41.4922 412.649 41.8241C413.221 42.1446 413.862 42.3048 414.571 42.3048Z" fill="#3B4168"/>
<path d="M423.282 32.4511H432.975V34.6656H426.044V37.1376H429.372C430.825 37.1376 431.929 37.4409 432.683 38.0475C433.45 38.654 433.833 39.5295 433.833 40.674C433.833 41.8756 433.41 42.8084 432.563 43.4721C431.717 44.1359 430.522 44.4678 428.978 44.4678H423.282V32.4511ZM428.823 42.4078C429.533 42.4078 430.076 42.2705 430.453 41.9958C430.831 41.7097 431.019 41.2977 431.019 40.7598C431.019 39.7069 430.287 39.1805 428.823 39.1805H426.044V42.4078H428.823Z" fill="#3B4168"/>
<path d="M441.146 32.4511C442.21 32.4511 443.13 32.6285 443.908 32.9833C444.697 33.3381 445.303 33.8416 445.727 34.4939C446.15 35.1463 446.361 35.9188 446.361 36.8115C446.361 37.6927 446.15 38.4652 445.727 39.129C445.303 39.7813 444.697 40.2849 443.908 40.6396C443.13 40.983 442.21 41.1546 441.146 41.1546H438.727V44.4678H435.948V32.4511H441.146ZM440.992 38.8886C441.827 38.8886 442.461 38.7112 442.896 38.3565C443.331 37.9902 443.548 37.4752 443.548 36.8115C443.548 36.1362 443.331 35.6212 442.896 35.2664C442.461 34.9002 441.827 34.7171 440.992 34.7171H438.727V38.8886H440.992Z" fill="#3B4168"/>
<path d="M455.723 41.8928H450.148L449.084 44.4678H446.236L451.589 32.4511H454.334L459.703 44.4678H456.787L455.723 41.8928ZM454.848 39.7813L452.944 35.1806L451.04 39.7813H454.848Z" fill="#3B4168"/>
<path d="M468.124 38.202C468.822 38.4423 469.365 38.82 469.754 39.335C470.154 39.8385 470.354 40.4279 470.354 41.1031C470.354 41.8356 470.114 42.4707 469.634 43.0086C469.153 43.5465 468.501 43.9585 467.678 44.2446C466.866 44.5308 465.974 44.6738 465.002 44.6738C464.178 44.6738 463.355 44.5708 462.531 44.3648C461.719 44.1588 460.947 43.8441 460.215 43.4206L461.073 41.4293C461.599 41.7497 462.177 41.9958 462.806 42.1675C463.446 42.3277 464.069 42.4078 464.676 42.4078C465.499 42.4078 466.18 42.259 466.717 41.9615C467.266 41.6639 467.541 41.2462 467.541 40.7083C467.541 40.262 467.352 39.9244 466.974 39.6955C466.609 39.4666 466.105 39.3521 465.465 39.3521H462.531V37.2578H465.259C465.819 37.2578 466.254 37.1433 466.563 36.9145C466.883 36.6856 467.043 36.3708 467.043 35.9703C467.043 35.5011 466.814 35.1348 466.357 34.8716C465.911 34.6084 465.333 34.4768 464.624 34.4768C464.098 34.4768 463.555 34.5512 462.994 34.6999C462.434 34.8373 461.902 35.049 461.399 35.3351L460.558 33.1721C461.828 32.5198 463.2 32.1936 464.676 32.1936C465.613 32.1936 466.477 32.3309 467.266 32.6056C468.055 32.8803 468.684 33.2808 469.153 33.8073C469.622 34.3337 469.857 34.946 469.857 35.6441C469.857 36.2163 469.702 36.7256 469.393 37.172C469.085 37.6183 468.661 37.9616 468.124 38.202Z" fill="#3B4168"/>
<path d="M478.284 44.6738C477.038 44.6738 475.911 44.4049 474.905 43.867C473.91 43.3291 473.126 42.5909 472.554 41.6525C471.994 40.7026 471.714 39.6382 471.714 38.4595C471.714 37.2807 471.994 36.2221 472.554 35.2836C473.126 34.3337 473.91 33.5898 474.905 33.0519C475.911 32.5141 477.038 32.2451 478.284 32.2451C479.531 32.2451 480.652 32.5141 481.647 33.0519C482.642 33.5898 483.425 34.3337 483.997 35.2836C484.569 36.2221 484.855 37.2807 484.855 38.4595C484.855 39.6382 484.569 40.7026 483.997 41.6525C483.425 42.5909 482.642 43.3291 481.647 43.867C480.652 44.4049 479.531 44.6738 478.284 44.6738ZM478.284 42.3048C478.993 42.3048 479.634 42.1446 480.206 41.8241C480.778 41.4922 481.224 41.0345 481.544 40.4508C481.876 39.8671 482.041 39.2033 482.041 38.4595C482.041 37.7156 481.876 37.0518 481.544 36.4681C481.224 35.8844 480.778 35.4324 480.206 35.1119C479.634 34.7801 478.993 34.6141 478.284 34.6141C477.575 34.6141 476.935 34.7801 476.363 35.1119C475.791 35.4324 475.339 35.8844 475.008 36.4681C474.687 37.0518 474.527 37.7156 474.527 38.4595C474.527 39.2033 474.687 39.8671 475.008 40.4508C475.339 41.0345 475.791 41.4922 476.363 41.8241C476.935 42.1446 477.575 42.3048 478.284 42.3048Z" fill="#3B4168"/>
<path d="M495.316 38.202C496.048 38.4194 496.609 38.7742 496.998 39.2663C497.387 39.7584 497.581 40.365 497.581 41.086C497.581 42.1503 497.175 42.98 496.363 43.5751C495.562 44.1703 494.413 44.4678 492.915 44.4678H486.996V32.4511H492.589C493.984 32.4511 495.071 32.72 495.848 33.2579C496.626 33.7958 497.015 34.5626 497.015 35.5583C497.015 36.1534 496.866 36.6798 496.569 37.1376C496.271 37.584 495.854 37.9387 495.316 38.202ZM489.758 37.4295H492.348C492.955 37.4295 493.412 37.3093 493.721 37.069C494.03 36.8172 494.184 36.451 494.184 35.9703C494.184 35.5011 494.024 35.1406 493.704 34.8888C493.395 34.637 492.943 34.5111 492.348 34.5111H489.758V37.4295ZM492.812 42.4078C494.116 42.4078 494.767 41.8928 494.767 40.8628C494.767 39.8671 494.116 39.3693 492.812 39.3693H489.758V42.4078H492.812Z" fill="#3B4168"/>
<path d="M507.911 41.8928H502.335L501.271 44.4678H498.424L503.776 32.4511H506.521L511.891 44.4678H508.974L507.911 41.8928ZM507.036 39.7813L505.131 35.1806L503.227 39.7813H507.036Z" fill="#3B4168"/>
<path d="M522.058 34.7171H518.216V44.4678H515.471V34.7171H511.645V32.4511H522.058V34.7171Z" fill="#3B4168"/>
<path d="M533.102 42.2361V44.4678H523.803V32.4511H532.879V34.6828H526.566V37.2921H532.141V39.4551H526.566V42.2361H533.102Z" fill="#3B4168"/>
<path d="M546.052 32.4511V44.4678H543.307V34.7171H539.19L539.104 37.2235C539.047 38.9287 538.909 40.3135 538.692 41.3778C538.475 42.4307 538.109 43.2433 537.594 43.8155C537.091 44.3763 536.382 44.6566 535.467 44.6566C535.089 44.6566 534.632 44.5937 534.094 44.4678L534.266 42.116C534.415 42.1617 534.58 42.1846 534.763 42.1846C535.427 42.1846 535.89 41.7955 536.153 41.0173C536.416 40.2276 536.582 38.9973 536.65 37.3265L536.822 32.4511H546.052Z" fill="#3B4168"/>
<path d="M554.867 36.3994C556.331 36.3994 557.452 36.7256 558.229 37.378C559.018 38.0303 559.413 38.9973 559.413 40.2791C559.413 41.641 558.978 42.6825 558.109 43.4035C557.251 44.113 556.039 44.4678 554.472 44.4678H549.051V32.4511H551.813V36.3994H554.867ZM554.318 42.4078C555.038 42.4078 555.599 42.2304 555.999 41.8756C556.411 41.5209 556.617 41.0059 556.617 40.3306C556.617 39.0832 555.85 38.4595 554.318 38.4595H551.813V42.4078H554.318Z" fill="#3B4168"/>
<path d="M572.429 32.4511V44.4678H569.65V39.541H564.194V44.4678H561.415V32.4511H564.194V37.1891H569.65V32.4511H572.429Z" fill="#3B4168"/>
<path d="M583.57 41.8928H577.994L576.93 44.4678H574.083L579.435 32.4511H582.18L587.55 44.4678H584.633L583.57 41.8928ZM582.695 39.7813L580.79 35.1806L578.886 39.7813H582.695Z" fill="#3B4168"/>
<path d="M598.112 32.4511V44.4678H595.368V41.2748H592.829L590.701 44.4678H587.768L590.272 40.8456C589.46 40.5137 588.837 40.0159 588.402 39.3521C587.968 38.6769 587.75 37.8701 587.75 36.9316C587.75 36.0046 587.962 35.2092 588.385 34.5454C588.808 33.8702 589.409 33.3552 590.187 33.0004C590.964 32.6342 591.879 32.4511 592.931 32.4511H598.112ZM593 34.7171C592.211 34.7171 591.605 34.9002 591.182 35.2664C590.77 35.6327 590.564 36.1763 590.564 36.8973C590.564 37.5954 590.764 38.1333 591.164 38.511C591.565 38.8886 592.154 39.0775 592.931 39.0775H595.368V34.7171H593Z" fill="#3B4168"/>
<rect x="373" width="1" height="80" fill="#3B4168"/>
</svg>
