<svg width="16" height="16" viewBox="0 0 16 16" fill="none" xmlns="http://www.w3.org/2000/svg">
<path d="M5.8281 5.78793C5.11267 6.39582 4.8505 7.50447 5.46825 8.39388C6.04632 9.22617 6.7745 9.95419 7.6066 10.532C8.49604 11.1496 9.60464 10.8874 10.2125 10.1719L10.2192 10.1751C10.9956 10.5347 11.8203 10.7812 12.6667 10.9068V12.6667L12.6659 12.6667L12.664 12.6667C7.34768 12.6742 3.32765 8.60741 3.33334 3.33573V3.33333H5.09291L5.09303 3.33411C5.21866 4.18043 5.46507 5.00436 5.82476 5.78072L5.8281 5.78793ZM12.6659 14H13.3333C13.7015 14 14 13.7015 14 13.3333V10.3318C14 10.0014 13.758 9.72087 13.4312 9.67237L12.8618 9.58786C12.1415 9.48097 11.4404 9.27128 10.7797 8.96523L10.2778 8.73273C9.98692 8.598 9.64136 8.68933 9.45505 8.95017L9.22784 9.26829C9.0287 9.54709 8.64852 9.63224 8.3671 9.43682C7.66557 8.94968 7.05071 8.33495 6.56335 7.63326C6.36788 7.35183 6.45304 6.97158 6.73189 6.77244L7.04985 6.54538C7.31073 6.35907 7.40207 6.01347 7.26731 5.7226L7.03456 5.22022C6.72849 4.5596 6.51882 3.8585 6.41191 3.13833L6.32736 2.56877C6.27884 2.24197 5.9983 2 5.66792 2H2.66667C2.29848 2 2.00001 2.29848 2.00001 2.66667V3.33429C1.99353 9.33858 6.60682 14.0086 12.6659 14Z" fill="#909EBB"/>
</svg>
