<svg width="16" height="16" viewBox="0 0 16 16" fill="none" xmlns="http://www.w3.org/2000/svg">
<path d="M7.99967 14C7.15763 13.2818 6.37713 12.4943 5.66634 11.646C4.59968 10.372 3.33301 8.47467 3.33301 6.66667C3.33206 4.77837 4.46917 3.0756 6.21372 2.35293C7.95827 1.63027 9.96638 2.03016 11.301 3.366C12.1786 4.23974 12.6703 5.42826 12.6664 6.66667C12.6664 8.47467 11.3997 10.372 10.333 11.646C9.62222 12.4943 8.84172 13.2818 7.99967 14ZM7.99968 3.33334C6.15964 3.33554 4.66855 4.82663 4.66634 6.66667C4.66634 7.444 5.01768 8.79 6.68968 10.7907C7.10177 11.2827 7.53902 11.7531 7.99968 12.2C8.46037 11.7536 8.89784 11.2839 9.31034 10.7927C10.9817 8.78934 11.333 7.44334 11.333 6.66667C11.3308 4.82663 9.83971 3.33554 7.99968 3.33334ZM7.99968 8.66667C6.89511 8.66667 5.99968 7.77124 5.99968 6.66667C5.99968 5.5621 6.89511 4.66667 7.99968 4.66667C9.10424 4.66667 9.99968 5.5621 9.99968 6.66667C9.99968 7.1971 9.78896 7.70581 9.41389 8.08088C9.03882 8.45596 8.53011 8.66667 7.99968 8.66667Z" fill="#909EBB"/>
<ellipse cx="8" cy="6.66666" rx="2" ry="2" fill="#909EBB"/>
<circle cx="8.00033" cy="6.66668" r="1.33333" fill="#12152A"/>
</svg>
