<svg width="20" height="20" viewBox="0 0 20 20" fill="none" xmlns="http://www.w3.org/2000/svg">
<path d="M10.8334 17.5V19.1667H9.16669V17.5H2.50002C2.27901 17.5 2.06704 17.4122 1.91076 17.2559C1.75448 17.0996 1.66669 16.8877 1.66669 16.6667V5H18.3334V16.6667C18.3334 16.8877 18.2456 17.0996 18.0893 17.2559C17.933 17.4122 17.721 17.5 17.5 17.5H10.8334ZM3.33335 15.8333H16.6667V6.66667H3.33335V15.8333ZM10.8334 8.33333H15V10H10.8334V8.33333ZM10.8334 11.6667H15V13.3333H10.8334V11.6667ZM7.50002 8.33333V10.8333H10C10 11.3278 9.8534 11.8111 9.57869 12.2223C9.30399 12.6334 8.91354 12.9538 8.45673 13.143C7.99991 13.3323 7.49725 13.3818 7.01229 13.2853C6.52734 13.1888 6.08188 12.9507 5.73225 12.6011C5.38262 12.2515 5.14452 11.806 5.04806 11.3211C4.95159 10.8361 5.0011 10.3334 5.19032 9.87662C5.37954 9.41981 5.69997 9.02936 6.11109 8.75466C6.52222 8.47996 7.00557 8.33333 7.50002 8.33333V8.33333ZM1.66669 2.5H18.3334V4.16667H1.66669V2.5Z" fill="currentColor"/>
</svg>
