<svg width="20" height="20" viewBox="0 0 20 20" fill="none" xmlns="http://www.w3.org/2000/svg">
<path d="M17.1483 16.5241C17.4378 16.9945 18.0537 17.1411 18.5241 16.8517C18.9945 16.5622 19.1411 15.9463 18.8517 15.4759L17.1483 16.5241ZM12 17C12.5523 17 13 16.5523 13 16C13 15.4477 12.5523 15 12 15V17ZM2.93791 14.4759L2.08625 13.9518L2.93791 14.4759ZM10.8517 4.38394L10 4.90804L10.8517 4.38394ZM18.8517 15.4759L11.7033 3.85985L10 4.90804L17.1483 16.5241L18.8517 15.4759ZM8.29668 3.85985L2.08625 13.9518L3.78956 15L10 4.90804L8.29668 3.85985ZM3.78956 17H12V15H3.78956V17ZM2.08625 13.9518C1.26622 15.2843 2.22492 17 3.78956 17V15L3.78956 15L2.08625 13.9518ZM11.7033 3.85985C10.9223 2.59077 9.07765 2.59077 8.29668 3.85985L10 4.90804L10 4.90804L11.7033 3.85985Z" fill="#0071CE"/>
</svg>
