<svg width="20" height="20" viewBox="0 0 20 20" fill="none" xmlns="http://www.w3.org/2000/svg">
<path d="M10.8333 17.5001V19.5834L8.33333 17.9167L5.83333 19.5834V17.5001H5.41667C4.64312 17.5001 3.90125 17.1928 3.35427 16.6458C2.80729 16.0988 2.5 15.357 2.5 14.5834V4.16675C2.5 3.50371 2.76339 2.86782 3.23223 2.39898C3.70107 1.93014 4.33696 1.66675 5 1.66675H16.6667C16.8877 1.66675 17.0996 1.75455 17.2559 1.91083C17.4122 2.06711 17.5 2.27907 17.5 2.50008V16.6667C17.5 16.8878 17.4122 17.0997 17.2559 17.256C17.0996 17.4123 16.8877 17.5001 16.6667 17.5001H10.8333ZM10.8333 15.8334H15.8333V13.3334H5.41667C5.08515 13.3334 4.7672 13.4651 4.53278 13.6995C4.29836 13.934 4.16667 14.2519 4.16667 14.5834C4.16667 14.9149 4.29836 15.2329 4.53278 15.4673C4.7672 15.7017 5.08515 15.8334 5.41667 15.8334H5.83333V14.1667H10.8333V15.8334ZM15.8333 11.6667V3.33341H5V11.6959C5.13802 11.6763 5.27726 11.6666 5.41667 11.6667H15.8333ZM5.83333 4.16675H7.5V5.83342H5.83333V4.16675ZM5.83333 6.66675H7.5V8.33342H5.83333V6.66675ZM5.83333 9.16675H7.5V10.8334H5.83333V9.16675Z" fill="#0071CE"/>
</svg>
