<svg width="265" height="34" viewBox="0 0 265 34" fill="none" xmlns="http://www.w3.org/2000/svg">
<path fill-rule="evenodd" clip-rule="evenodd" d="M122.584 19.3382H114.232C112.999 19.3382 112.999 20.9925 114.232 20.9925C115.353 20.9925 116.418 20.9925 117.483 20.9925C117.539 20.9925 117.651 20.9925 117.707 20.9925H119.781C121.183 20.9925 122.808 22.1333 122.808 23.6735V24.1299C122.808 25.6701 121.183 26.811 119.781 26.811H119.333H117.483H117.259H110.701V24.7003H119.333C120.622 24.7003 120.566 23.046 119.333 23.046C118.212 23.046 117.147 23.046 116.082 23.046C116.026 23.046 115.914 23.046 115.858 23.046H113.784C112.383 23.046 110.757 21.9052 110.757 20.365V19.9086C110.757 18.3684 112.383 17.2276 113.784 17.2276H116.138H122.64V19.3382H122.584ZM91.4755 20.9354H97.0807C98.3138 20.9354 98.3138 19.2811 97.0807 19.2811H95.5673H93.4373H91.9239C91.4195 19.2811 91.0271 19.6234 90.915 20.0798V20.9354C91.1392 20.9925 91.3074 20.9354 91.4755 20.9354ZM100.612 24.7003H91.98C90.7469 24.7003 90.7469 23.046 91.98 23.046C93.101 23.046 94.166 23.046 95.231 23.046C95.287 23.046 95.3991 23.046 95.4552 23.046H97.5291C98.9303 23.046 100.556 21.9052 100.556 20.365V19.9086C100.556 18.3684 98.9303 17.2276 97.5291 17.2276H95.5673H95.1749H93.3813H91.4195C90.0182 17.2276 88.3927 18.3684 88.3927 19.9086V20.1368V23.6735V24.1299C88.3927 25.6701 90.0182 26.811 91.4195 26.811H100.556V24.7003H100.612ZM135.588 25.2137V26.2405V26.7539H134.523H132.169C130.767 26.7539 129.142 25.613 129.142 24.0728V21.2777V19.9086V13.919C129.142 12.607 130.151 11.5802 131.44 11.5802H131.72V17.2846C131.888 17.2846 132.057 17.2276 132.169 17.2276H134.523H134.859V19.3382H133.29H131.72V20.9354V21.8481V23.1031C131.72 23.9588 132.449 24.7003 133.29 24.7003H135.588V25.2137ZM88.5048 17.2276C87.3838 17.2276 85.8144 17.0564 84.9736 18.4255L81.1621 24.301L77.3506 18.4255C76.5659 17.0564 74.9965 17.2276 73.8194 17.2276L78.9761 25.3278C79.4806 26.1264 80.0971 26.6969 80.8258 26.811C81.7226 26.925 82.5634 26.4116 83.236 25.3278C84.9175 22.8179 86.7672 19.9657 88.5048 17.2276ZM55.0423 19.2811C55.0423 18.0832 55.827 17.2276 57.0041 17.2276H58.6856C58.8537 17.2276 59.0219 17.2846 59.3582 17.5698L66.3646 24.5292V18.8248C66.3646 17.6269 67.1493 17.1705 68.3264 17.1705H70.0079C69.3914 17.2276 68.943 17.3987 68.943 19.053V25.2708C68.943 25.8412 68.4945 26.6969 67.934 26.6969H66.1964H65.6359C65.0754 26.6969 64.627 26.1835 64.2347 25.7842L57.6767 19.167C57.6767 19.2241 57.6767 19.2811 57.6767 19.3952V26.6969H55.0983V19.2811H55.0423ZM102.63 19.2811C102.63 18.0832 103.751 17.2276 104.928 17.2276H105.208H109.02H109.804V19.3382H109.02H106.721C105.881 19.3382 105.152 20.0798 105.152 20.9354V26.811H102.574V19.2811H102.63ZM148.648 33.9985H148.367C147.078 33.9985 146.069 32.9717 146.069 31.6597V26.6969C145.901 26.6969 145.733 26.7539 145.621 26.7539H141.529H139.455C138.054 26.7539 136.429 25.613 136.429 24.0728V19.9086C136.429 18.5396 137.718 17.5128 138.951 17.2846V20.365V22.4756V23.6735C138.951 24.244 139.399 24.6433 139.96 24.6433H145.173C145.621 24.6433 146.069 24.301 146.125 23.8447C146.125 23.7876 146.125 23.6735 146.125 23.6165V22.4186V21.2206V19.8516C146.125 18.4825 147.415 17.4557 148.648 17.2276V20.3079V23.7306V24.0728V33.9985ZM124.714 19.2811C124.714 18.0832 125.835 17.2276 127.012 17.2276H127.292V26.7539H124.714V19.2811ZM43.4397 17.2846C42.1505 17.5128 40.9174 18.5966 40.9174 19.9086V24.0728C40.9174 25.613 42.5429 26.7539 43.9441 26.7539H47.083H48.0919H50.1658C51.5671 26.7539 53.1926 25.613 53.1926 24.0728V20.3079V17.2276C51.9034 17.4557 50.6703 18.5396 50.6703 19.8516C50.6703 21.1065 50.6703 22.3615 50.6703 23.6165C50.6703 24.1869 50.2219 24.6433 49.6613 24.6433H47.083H44.5046C43.9441 24.6433 43.4957 24.1869 43.4957 23.6165V22.8749V20.3079V17.2846H43.4397ZM70.8487 19.2811C70.8487 18.0832 71.9697 17.2276 73.1468 17.2276H73.4271V26.7539H70.8487V19.2811ZM0 7.70119C0 6.50327 1.12102 5.64761 2.2981 5.64761H2.57835V15.174H0V7.70119ZM27.1288 7.30188C27.1288 6.10396 27.9135 5.64761 29.0906 5.64761H30.7721C30.0995 5.70465 29.7071 5.87578 29.7071 7.53006V13.7479C29.7071 14.3183 29.2587 15.174 28.6982 15.174H26.3441C25.7835 15.174 25.3351 14.6606 24.9428 14.2613L18.3848 7.70119V13.8049C18.3848 14.3753 17.9364 15.231 17.3759 15.231H15.0217C14.4612 15.231 14.0128 14.7176 13.6204 14.3183L7.06245 7.70119C7.06245 7.75824 7.06245 7.81528 7.06245 7.92937V15.231H4.42804V7.70119C4.42804 6.50327 5.21276 5.64761 6.38983 5.64761H8.07137C8.23952 5.64761 8.40768 5.70465 8.74399 5.98987L15.7504 12.9492V7.24484C15.7504 6.04691 16.5351 5.59056 17.7122 5.59056H19.3937C19.5619 5.59056 19.73 5.64761 20.0663 5.93283L27.0727 12.8922V7.30188H27.1288ZM100.332 7.75824H91.98C90.7469 7.75824 90.7469 9.41251 91.98 9.41251C93.101 9.41251 94.166 9.41251 95.231 9.41251C95.287 9.41251 95.3991 9.41251 95.4552 9.41251H97.5291C98.9303 9.41251 100.556 10.5534 100.556 12.0936V12.5499C100.556 14.0901 98.9303 15.231 97.5291 15.231H97.0807H95.231H95.0068H88.4488V13.1204H97.0807C98.3698 13.1204 98.3138 11.4661 97.0807 11.4661C95.9596 11.4661 94.8946 11.4661 93.8297 11.4661C93.7736 11.4661 93.6615 11.4661 93.6055 11.4661H91.5316C90.1303 11.4661 88.5048 10.3252 88.5048 8.78503V8.32868C88.5048 6.78849 90.1303 5.64761 91.5316 5.64761H93.8857H100.332V7.75824ZM83.7405 7.70119C83.7405 6.50327 84.8615 5.64761 86.0386 5.64761H86.3188V15.174H83.7405V7.70119ZM76.678 0.000244141V11.5231C76.678 12.3788 77.4067 13.1204 78.2475 13.1204H81.6666V13.6338V14.6606V15.174H79.4806H77.1264C75.7252 15.174 74.0997 14.0331 74.0997 12.4929V2.33905C74.0997 1.02704 75.1086 0.000244141 76.3978 0.000244141H76.678ZM40.8613 15.174H40.0205H38.7314H37.7224H37.6664H34.6396C33.2384 15.174 31.6129 14.0331 31.6129 12.4929V8.32868C31.6129 6.78849 33.2384 5.64761 34.6396 5.64761H35.3122H36.2651H36.9938H38.283H40.8053C42.2065 5.64761 43.832 6.78849 43.832 8.32868V12.4929C43.9441 14.0331 42.2626 15.174 40.8613 15.174ZM41.3658 12.0936V8.78503C41.3658 8.21459 40.9174 7.75824 40.3569 7.75824H35.1441C34.6957 7.75824 34.2473 8.1005 34.1352 8.6139C34.1352 8.67094 34.1352 9.07025 34.1352 9.12729V12.0936C34.1352 12.664 34.5836 13.1204 35.1441 13.1204H37.7224H40.3008C40.9174 13.1204 41.3658 12.664 41.3658 12.0936ZM54.9862 15.174H52.9123H52.8563H52.8002H52.7442H52.6881H52.6321H52.576H52.52H52.4639H52.4079H52.3518H52.2958H52.2397H52.1837H52.1276H52.0716H52.0155H48.7085C48.5403 15.174 48.3722 15.174 48.2601 15.1169V20.0798C48.2601 21.3918 47.2511 22.4186 45.962 22.4186H45.6817V8.32868C45.6817 6.78849 47.3072 5.64761 48.7085 5.64761H49.1008H51.0066H51.5671H55.0423C56.4435 5.64761 58.069 6.78849 58.069 8.32868V12.4929C58.069 14.0331 56.3875 15.174 54.9862 15.174ZM55.5467 12.1506V11.8084V8.78503C55.5467 8.21459 55.0983 7.75824 54.5939 7.75824H54.5378H49.325C48.7645 7.75824 48.3161 8.21459 48.3161 8.78503V12.0936C48.3161 12.664 48.7645 13.1204 49.325 13.1204H54.5378C55.0423 13.1204 55.4907 12.664 55.5467 12.1506ZM49.269 7.75824C49.2129 7.75824 49.2129 7.75824 49.1569 7.75824C49.1569 7.75824 49.2129 7.75824 49.269 7.75824ZM49.1008 7.75824C49.0448 7.75824 48.9887 7.75824 48.9327 7.81528C49.0448 7.81528 49.0448 7.75824 49.1008 7.75824ZM69.2232 15.174H68.3824H67.0933H66.1404H66.0843H63.0576C61.6563 15.174 60.0308 14.0331 60.0308 12.4929V8.32868C60.0308 6.78849 61.6563 5.64761 63.0576 5.64761H63.6741H64.627H65.3557H66.6449H69.1672C70.5684 5.64761 72.1939 6.78849 72.1939 8.32868V12.4929C72.25 14.0331 70.6245 15.174 69.2232 15.174ZM69.7277 12.0936V8.78503C69.7277 8.21459 69.2793 7.75824 68.7188 7.75824H63.506C63.0576 7.75824 62.6092 8.1005 62.4971 8.6139C62.4971 8.67094 62.4971 9.07025 62.4971 9.12729V12.0936C62.4971 12.664 62.9455 13.1204 63.506 13.1204H66.0843H68.6627C69.2793 13.1204 69.7277 12.664 69.7277 12.0936Z" fill="#1E253B"/>
<path d="M185.786 23.5668V28.6739H184.564V24.5298H182.165V28.6739H180.943V23.5668H185.786Z" fill="#1E253B"/>
<path d="M191.802 23.5668V28.6739H190.587V24.5298H188.766L188.728 25.595C188.702 26.3197 188.642 26.9083 188.546 27.3606C188.449 27.8081 188.287 28.1534 188.06 28.3966C187.837 28.635 187.523 28.7541 187.119 28.7541C186.952 28.7541 186.749 28.7274 186.511 28.6739L186.587 27.6743C186.653 27.6938 186.727 27.7035 186.807 27.7035C187.101 27.7035 187.306 27.5382 187.422 27.2074C187.539 26.8718 187.612 26.3489 187.642 25.6388L187.718 23.5668H191.802Z" fill="#1E253B"/>
<path d="M196.726 27.5795H194.259L193.789 28.6739H192.529L194.897 23.5668H196.111L198.487 28.6739H197.197L196.726 27.5795ZM196.339 26.6821L195.496 24.7268L194.654 26.6821H196.339Z" fill="#1E253B"/>
<path d="M202.985 24.5298H201.285V28.6739H200.071V24.5298H198.378V23.5668H202.985V24.5298Z" fill="#1E253B"/>
<path d="M209.975 26.1057C209.975 26.7818 209.734 27.3144 209.254 27.7035C208.778 28.0878 208.093 28.3018 207.197 28.3456V28.9001H206.066V28.3383C205.165 28.2896 204.475 28.0732 203.994 27.6889C203.518 27.2998 203.281 26.7721 203.281 26.1057C203.281 25.4345 203.518 24.9092 203.994 24.5298C204.475 24.1456 205.165 23.9267 206.066 23.8732V23.3479H207.197V23.8659C208.093 23.9145 208.778 24.1334 209.254 24.5225C209.734 24.9116 209.975 25.4394 209.975 26.1057ZM207.197 27.419C207.733 27.3704 208.133 27.239 208.396 27.025C208.659 26.8061 208.791 26.4973 208.791 26.0984C208.791 25.3202 208.259 24.8873 207.197 24.7998V27.419ZM204.472 26.1057C204.472 26.8742 205.003 27.312 206.066 27.419V24.7998C205.525 24.8484 205.122 24.9797 204.859 25.1938C204.601 25.4029 204.472 25.7069 204.472 26.1057Z" fill="#1E253B"/>
<path d="M213.43 28.7614C212.878 28.7614 212.38 28.6471 211.934 28.4185C211.494 28.1899 211.148 27.8762 210.895 27.4774C210.647 27.0737 210.523 26.6213 210.523 26.1203C210.523 25.6193 210.647 25.1694 210.895 24.7706C211.148 24.3669 211.494 24.0507 211.934 23.8221C212.38 23.5935 212.878 23.4792 213.43 23.4792C213.981 23.4792 214.477 23.5935 214.917 23.8221C215.357 24.0507 215.704 24.3669 215.957 24.7706C216.21 25.1694 216.336 25.6193 216.336 26.1203C216.336 26.6213 216.21 27.0737 215.957 27.4774C215.704 27.8762 215.357 28.1899 214.917 28.4185C214.477 28.6471 213.981 28.7614 213.43 28.7614ZM213.43 27.7546C213.743 27.7546 214.027 27.6865 214.28 27.5503C214.533 27.4093 214.73 27.2147 214.872 26.9666C215.018 26.7186 215.092 26.4365 215.092 26.1203C215.092 25.8042 215.018 25.5221 214.872 25.274C214.73 25.0259 214.533 24.8338 214.28 24.6976C214.027 24.5566 213.743 24.4861 213.43 24.4861C213.116 24.4861 212.833 24.5566 212.58 24.6976C212.327 24.8338 212.127 25.0259 211.98 25.274C211.838 25.5221 211.767 25.8042 211.767 26.1203C211.767 26.4365 211.838 26.7186 211.98 26.9666C212.127 27.2147 212.327 27.4093 212.58 27.5503C212.833 27.6865 213.116 27.7546 213.43 27.7546Z" fill="#1E253B"/>
<path d="M219.583 23.5668C220.054 23.5668 220.461 23.6422 220.805 23.7929C221.154 23.9437 221.423 24.1577 221.61 24.435C221.797 24.7122 221.891 25.0405 221.891 25.4199C221.891 25.7944 221.797 26.1228 221.61 26.4049C221.423 26.6821 221.154 26.8961 220.805 27.0469C220.461 27.1928 220.054 27.2658 219.583 27.2658H218.513V28.6739H217.284V23.5668H219.583ZM219.515 26.3027C219.884 26.3027 220.165 26.2273 220.357 26.0766C220.55 25.9209 220.646 25.702 220.646 25.4199C220.646 25.133 220.55 24.9141 220.357 24.7633C220.165 24.6077 219.884 24.5298 219.515 24.5298H218.513V26.3027H219.515Z" fill="#1E253B"/>
<path d="M227.536 28.6739L227.529 25.6169L225.965 28.134H225.419L223.855 25.6753V28.6739H222.702V23.5668H223.719L225.707 26.7405L227.665 23.5668H228.682L228.69 28.6739H227.536Z" fill="#1E253B"/>
<path d="M233.607 27.5795H231.141L230.67 28.6739H229.41L231.778 23.5668H232.992L235.368 28.6739H234.078L233.607 27.5795ZM233.22 26.6821L232.378 24.7268L231.535 26.6821H233.22Z" fill="#1E253B"/>
<path d="M185.057 7.98359V8.93205H180.943V3.82495H184.958V4.77341H182.165V5.88238H184.632V6.80166H182.165V7.98359H185.057Z" fill="#1E253B"/>
<path d="M191.53 7.969V9.98995H190.391V8.93205H186.642V9.98995H185.504L185.511 7.969H185.724C186.043 7.95927 186.268 7.73553 186.399 7.29778C186.531 6.86003 186.612 6.23502 186.642 5.42274L186.703 3.82495H190.786V7.969H191.53ZM187.727 5.53218C187.702 6.14017 187.649 6.65088 187.568 7.06431C187.487 7.47288 187.363 7.77444 187.196 7.969H189.572V4.788H187.75L187.727 5.53218Z" fill="#1E253B"/>
<path d="M192.358 3.82495H193.58V7.15186L196.114 3.82495H197.268V8.93205H196.054V5.61244L193.519 8.93205H192.358V3.82495Z" fill="#1E253B"/>
<path d="M203.464 3.82495V8.93205H202.234V6.83814H199.82V8.93205H198.591V3.82495H199.82V5.83861H202.234V3.82495H203.464Z" fill="#1E253B"/>
<path d="M208.392 7.83767H205.926L205.455 8.93205H204.195L206.563 3.82495H207.777L210.153 8.93205H208.863L208.392 7.83767ZM208.005 6.94028L207.163 4.98499L206.32 6.94028H208.005Z" fill="#1E253B"/>
<path d="M214.826 3.82495V8.93205H213.612V7.57502H212.488L211.547 8.93205H210.249L211.357 7.39263C210.998 7.25157 210.722 7.03999 210.53 6.75789C210.338 6.47092 210.242 6.12801 210.242 5.72917C210.242 5.33519 210.335 4.99715 210.523 4.71505C210.71 4.42808 210.975 4.2092 211.319 4.05842C211.664 3.90277 212.068 3.82495 212.534 3.82495H214.826ZM212.564 4.788C212.215 4.788 211.947 4.86583 211.76 5.02147C211.578 5.17712 211.486 5.40815 211.486 5.71458C211.486 6.01128 211.575 6.23988 211.752 6.40039C211.929 6.5609 212.19 6.64115 212.534 6.64115H213.612V4.788H212.564Z" fill="#1E253B"/>
<path d="M183.408 18.9862C182.856 18.9862 182.358 18.8719 181.913 18.6433C181.472 18.4147 181.126 18.101 180.873 17.7021C180.625 17.2984 180.501 16.8461 180.501 16.3451C180.501 15.8441 180.625 15.3942 180.873 14.9954C181.126 14.5917 181.472 14.2755 181.913 14.0469C182.358 13.8183 182.856 13.704 183.408 13.704C183.959 13.704 184.455 13.8183 184.895 14.0469C185.336 14.2755 185.682 14.5917 185.935 14.9954C186.188 15.3942 186.315 15.8441 186.315 16.3451C186.315 16.8461 186.188 17.2984 185.935 17.7021C185.682 18.101 185.336 18.4147 184.895 18.6433C184.455 18.8719 183.959 18.9862 183.408 18.9862ZM183.408 17.9794C183.722 17.9794 184.005 17.9113 184.258 17.7751C184.511 17.6341 184.708 17.4395 184.85 17.1914C184.997 16.9434 185.07 16.6613 185.07 16.3451C185.07 16.029 184.997 15.7469 184.85 15.4988C184.708 15.2507 184.511 15.0586 184.258 14.9224C184.005 14.7814 183.722 14.7108 183.408 14.7108C183.094 14.7108 182.811 14.7814 182.558 14.9224C182.305 15.0586 182.105 15.2507 181.958 15.4988C181.817 15.7469 181.746 16.029 181.746 16.3451C181.746 16.6613 181.817 16.9434 181.958 17.1914C182.105 17.4395 182.305 17.6341 182.558 17.7751C182.811 17.9113 183.094 17.9794 183.408 17.9794Z" fill="#1E253B"/>
<path d="M187.262 13.7916H191.55V14.7327H188.484V15.7833H189.956C190.599 15.7833 191.087 15.9122 191.421 16.17C191.76 16.4278 191.93 16.7999 191.93 17.2863C191.93 17.797 191.742 18.1934 191.368 18.4755C190.993 18.7576 190.465 18.8987 189.782 18.8987H187.262V13.7916ZM189.713 18.0232C190.027 18.0232 190.267 17.9648 190.434 17.8481C190.601 17.7265 190.685 17.5514 190.685 17.3228C190.685 16.8753 190.361 16.6515 189.713 16.6515H188.484V18.0232H189.713Z" fill="#1E253B"/>
<path d="M195.165 13.7916C195.635 13.7916 196.043 13.867 196.387 14.0177C196.736 14.1685 197.004 14.3825 197.191 14.6598C197.379 14.937 197.472 15.2653 197.472 15.6447C197.472 16.0192 197.379 16.3475 197.191 16.6297C197.004 16.9069 196.736 17.1209 196.387 17.2717C196.043 17.4176 195.635 17.4906 195.165 17.4906H194.095V18.8987H192.865V13.7916H195.165ZM195.097 16.5275C195.466 16.5275 195.747 16.4521 195.939 16.3013C196.131 16.1457 196.227 15.9268 196.227 15.6447C196.227 15.3577 196.131 15.1389 195.939 14.9881C195.747 14.8324 195.466 14.7546 195.097 14.7546H194.095V16.5275H195.097Z" fill="#1E253B"/>
<path d="M201.614 17.8043H199.147L198.677 18.8987H197.417L199.785 13.7916H200.999L203.375 18.8987H202.085L201.614 17.8043ZM201.227 16.9069L200.384 14.9516L199.542 16.9069H201.227Z" fill="#1E253B"/>
<path d="M207.1 16.2357C207.409 16.3378 207.649 16.4983 207.821 16.7172C207.998 16.9312 208.087 17.1817 208.087 17.4687C208.087 17.78 207.98 18.0499 207.768 18.2785C207.555 18.5071 207.267 18.6822 206.903 18.8038C206.543 18.9254 206.149 18.9862 205.719 18.9862C205.354 18.9862 204.99 18.9424 204.626 18.8549C204.267 18.7673 203.925 18.6336 203.601 18.4536L203.981 17.6073C204.213 17.7435 204.469 17.8481 204.747 17.921C205.031 17.9891 205.306 18.0232 205.575 18.0232C205.939 18.0232 206.24 17.9599 206.478 17.8335C206.721 17.707 206.842 17.5295 206.842 17.3009C206.842 17.1112 206.759 16.9677 206.592 16.8704C206.43 16.7731 206.207 16.7245 205.924 16.7245H204.626V15.8344H205.833C206.08 15.8344 206.273 15.7858 206.409 15.6885C206.551 15.5912 206.622 15.4575 206.622 15.2872C206.622 15.0878 206.521 14.9322 206.318 14.8203C206.121 14.7084 205.865 14.6525 205.552 14.6525C205.319 14.6525 205.079 14.6841 204.831 14.7473C204.583 14.8057 204.348 14.8957 204.125 15.0173L203.753 14.098C204.315 13.8208 204.922 13.6821 205.575 13.6821C205.989 13.6821 206.371 13.7405 206.721 13.8572C207.07 13.974 207.348 14.1442 207.555 14.3679C207.763 14.5917 207.867 14.8519 207.867 15.1486C207.867 15.3918 207.798 15.6082 207.662 15.7979C207.525 15.9876 207.338 16.1335 207.1 16.2357Z" fill="#1E253B"/>
<path d="M211.595 18.9862C211.044 18.9862 210.545 18.8719 210.1 18.6433C209.66 18.4147 209.313 18.101 209.06 17.7021C208.812 17.2984 208.688 16.8461 208.688 16.3451C208.688 15.8441 208.812 15.3942 209.06 14.9954C209.313 14.5917 209.66 14.2755 210.1 14.0469C210.545 13.8183 211.044 13.704 211.595 13.704C212.147 13.704 212.642 13.8183 213.083 14.0469C213.523 14.2755 213.869 14.5917 214.122 14.9954C214.375 15.3942 214.502 15.8441 214.502 16.3451C214.502 16.8461 214.375 17.2984 214.122 17.7021C213.869 18.101 213.523 18.4147 213.083 18.6433C212.642 18.8719 212.147 18.9862 211.595 18.9862ZM211.595 17.9794C211.909 17.9794 212.192 17.9113 212.445 17.7751C212.698 17.6341 212.895 17.4395 213.037 17.1914C213.184 16.9434 213.257 16.6613 213.257 16.3451C213.257 16.029 213.184 15.7469 213.037 15.4988C212.895 15.2507 212.698 15.0586 212.445 14.9224C212.192 14.7814 211.909 14.7108 211.595 14.7108C211.281 14.7108 210.998 14.7814 210.745 14.9224C210.492 15.0586 210.292 15.2507 210.145 15.4988C210.004 15.7469 209.933 16.029 209.933 16.3451C209.933 16.6613 210.004 16.9434 210.145 17.1914C210.292 17.4395 210.492 17.6341 210.745 17.7751C210.998 17.9113 211.281 17.9794 211.595 17.9794Z" fill="#1E253B"/>
<path d="M219.13 16.2357C219.454 16.3281 219.702 16.4789 219.874 16.688C220.046 16.8972 220.132 17.155 220.132 17.4614C220.132 17.9137 219.952 18.2664 219.593 18.5193C219.239 18.7722 218.73 18.8987 218.068 18.8987H215.449V13.7916H217.923C218.541 13.7916 219.021 13.9059 219.365 14.1345C219.709 14.3631 219.881 14.689 219.881 15.1121C219.881 15.365 219.816 15.5888 219.684 15.7833C219.553 15.973 219.368 16.1238 219.13 16.2357ZM216.671 15.9074H217.817C218.085 15.9074 218.288 15.8563 218.424 15.7542C218.561 15.6471 218.629 15.4915 218.629 15.2872C218.629 15.0878 218.558 14.9346 218.417 14.8276C218.28 14.7206 218.08 14.6671 217.817 14.6671H216.671V15.9074ZM218.022 18.0232C218.599 18.0232 218.887 17.8043 218.887 17.3665C218.887 16.9434 218.599 16.7318 218.022 16.7318H216.671V18.0232H218.022Z" fill="#1E253B"/>
<path d="M224.702 17.8043H222.235L221.765 18.8987H220.505L222.873 13.7916H224.087L226.463 18.8987H225.172L224.702 17.8043ZM224.315 16.9069L223.472 14.9516L222.63 16.9069H224.315Z" fill="#1E253B"/>
<path d="M230.961 14.7546H229.261V18.8987H228.046V14.7546H226.354V13.7916H230.961V14.7546Z" fill="#1E253B"/>
<path d="M235.847 17.9502V18.8987H231.733V13.7916H235.748V14.74H232.955V15.849H235.422V16.7683H232.955V17.9502H235.847Z" fill="#1E253B"/>
<path d="M241.576 13.7916V18.8987H240.361V14.7546H238.54L238.502 15.8198C238.477 16.5445 238.416 17.1331 238.32 17.5854C238.224 18.0329 238.062 18.3782 237.834 18.6214C237.611 18.8598 237.298 18.9789 236.893 18.9789C236.726 18.9789 236.523 18.9522 236.286 18.8987L236.362 17.8991C236.427 17.9186 236.501 17.9283 236.582 17.9283C236.875 17.9283 237.08 17.7629 237.196 17.4322C237.313 17.0966 237.386 16.5737 237.416 15.8636L237.492 13.7916H241.576Z" fill="#1E253B"/>
<path d="M245.475 15.4696C246.123 15.4696 246.619 15.6082 246.963 15.8855C247.312 16.1627 247.487 16.5737 247.487 17.1185C247.487 17.6973 247.294 18.1399 246.91 18.4463C246.53 18.7479 245.994 18.8987 245.301 18.8987H242.903V13.7916H244.124V15.4696H245.475ZM245.233 18.0232C245.551 18.0232 245.799 17.9478 245.976 17.797C246.159 17.6462 246.25 17.4273 246.25 17.1404C246.25 16.6102 245.911 16.3451 245.233 16.3451H244.124V18.0232H245.233Z" fill="#1E253B"/>
<path d="M253.245 13.7916V18.8987H252.016V16.8048H249.602V18.8987H248.372V13.7916H249.602V15.8052H252.016V13.7916H253.245Z" fill="#1E253B"/>
<path d="M258.174 17.8043H255.707L255.236 18.8987H253.977L256.345 13.7916H257.559L259.935 18.8987H258.644L258.174 17.8043ZM257.787 16.9069L256.944 14.9516L256.102 16.9069H257.787Z" fill="#1E253B"/>
<path d="M264.607 13.7916V18.8987H263.393V17.5416H262.27L261.329 18.8987H260.031L261.139 17.3592C260.78 17.2182 260.504 17.0066 260.312 16.7245C260.119 16.4375 260.023 16.0946 260.023 15.6958C260.023 15.3018 260.117 14.9638 260.304 14.6817C260.491 14.3947 260.757 14.1758 261.101 14.025C261.445 13.8694 261.85 13.7916 262.315 13.7916H264.607ZM262.346 14.7546C261.997 14.7546 261.728 14.8324 261.541 14.9881C261.359 15.1437 261.268 15.3748 261.268 15.6812C261.268 15.9779 261.357 16.2065 261.534 16.367C261.711 16.5275 261.971 16.6078 262.315 16.6078H263.393V14.7546H262.346Z" fill="#1E253B"/>
<rect x="165.016" width="0.442413" height="34" fill="#1E253B"/>
</svg>
